Radio-Canada-MediumItalic.ufo
<glyph name="exclam" format="1">
  <advance width="325.5494252675463"/>
  <unicode hex="0021"/>
  <outline>
    <contour>
      <point x="34.8" y="56.0" type="curve" smooth="yes"/>
      <point x="34.8" y="14.799999999999999"/>
      <point x="62.6" y="-11.2"/>
      <point x="105.8" y="-11.2" type="curve" smooth="yes"/>
      <point x="155.8" y="-11.2"/>
      <point x="199.60000000000002" y="29.2"/>
      <point x="199.60000000000002" y="80.8" type="curve" smooth="yes"/>
      <point x="199.60000000000002" y="122.6"/>
      <point x="171.8" y="148.0"/>
      <point x="128.60000000000002" y="148.0" type="curve" smooth="yes"/>
      <point x="78.6" y="148.0"/>
      <point x="34.8" y="107.6"/>
    </contour>
    <contour>
      <point x="107.2" y="239.2" type="line"/>
      <point x="203.2" y="239.2" type="line"/>
      <point x="288.20000000000005" y="521.0" type="line"/>
      <point x="324.0" y="690.0" type="line"/>
      <point x="184.8" y="690.0" type="line"/>
      <point x="149.0" y="521.0" type="line"/>
    </contour>
  </outline>
</glyph>
<glyph name="quotedbl" format="1">
  <advance width="440.35927559758414"/>
  <unicode hex="0022"/>
  <outline>
    <contour>
      <point x="104.19999999999999" y="407.4" type="line"/>
      <point x="191.39999999999998" y="407.4" type="line"/>
      <point x="286.2" y="720.0" type="line"/>
      <point x="142.2" y="720.0" type="line"/>
    </contour>
    <contour>
      <point x="302.2" y="407.4" type="line"/>
      <point x="389.4" y="407.4" type="line"/>
      <point x="484.2" y="720.0" type="line"/>
      <point x="340.6" y="720.0" type="line"/>
    </contour>
  </outline>
</glyph>
<glyph name="numbersign" format="1">
  <advance width="756.1316740189129"/>
  <unicode hex="0023"/>
  <outline>
    <contour>
      <point x="41.8" y="0.0" type="line"/>
      <point x="169.2" y="0.0" type="line"/>
      <point x="484.6" y="690.0" type="line"/>
      <point x="357.2" y="690.0" type="line"/>
    </contour>
    <contour>
      <point x="26.2" y="165.60000000000002" type="line"/>
      <point x="619.2" y="165.60000000000002" type="line"/>
      <point x="643.2" y="278.8" type="line"/>
      <point x="50.2" y="278.8" type="line"/>
    </contour>
    <contour>
      <point x="139.2" y="411.20000000000005" type="line"/>
      <point x="732.2" y="411.20000000000005" type="line"/>
      <point x="756.4" y="524.4" type="line"/>
      <point x="163.4" y="524.4" type="line"/>
    </contour>
    <contour>
      <point x="298.8" y="0.0" type="line"/>
      <point x="426.2" y="0.0" type="line"/>
      <point x="741.6" y="690.0" type="line"/>
      <point x="613.8" y="690.0" type="line"/>
    </contour>
  </outline>
</glyph>
<glyph name="dollar" format="1">
  <advance width="600.0"/>
  <unicode hex="0024"/>
  <outline>
    <contour>
      <point x="-19.4" y="87.80000000000001" type="line"/>
      <point x="51.2" y="31.4"/>
      <point x="145.2" y="-11.2"/>
      <point x="260.6" y="-11.2" type="curve"/>
      <point x="441.79999999999995" y="-11.2"/>
      <point x="529.0" y="80.2"/>
      <point x="529.0" y="191.2" type="curve"/>
      <point x="529.0" y="268.2"/>
      <point x="487.6" y="334.4"/>
      <point x="342.0" y="411.2" type="curve" smooth="yes"/>
      <point x="250.4" y="459.4"/>
      <point x="231.60000000000002" y="486.0"/>
      <point x="231.60000000000002" y="516.2" type="curve"/>
      <point x="231.60000000000002" y="552.2"/>
      <point x="266.6" y="583.8"/>
      <point x="334.0" y="583.8" type="curve"/>
      <point x="401.20000000000005" y="583.8"/>
      <point x="467.20000000000005" y="551.8"/>
      <point x="520.2" y="512.8" type="curve"/>
      <point x="581.4" y="626.4000000000001" type="line"/>
      <point x="521.8" y="669.6"/>
      <point x="437.0" y="701.2"/>
      <point x="354.8" y="701.2" type="curve"/>
      <point x="189.39999999999998" y="701.2"/>
      <point x="92.8" y="606.8"/>
      <point x="92.8" y="511.4" type="curve"/>
      <point x="92.8" y="433.0"/>
      <point x="130.8" y="374.4"/>
      <point x="268.20000000000005" y="298.6" type="curve" smooth="yes"/>
      <point x="367.0" y="245.2"/>
      <point x="381.8" y="217.0"/>
      <point x="381.8" y="181.0" type="curve"/>
      <point x="381.8" y="142.0"/>
      <point x="353.4" y="108.6"/>
      <point x="264.8" y="108.6" type="curve"/>
      <point x="190.6" y="108.6"/>
      <point x="109.19999999999999" y="148.0"/>
      <point x="55.4" y="197.59999999999997" type="curve"/>
    </contour>
    <contour>
      <point x="170.4" y="-100.0" type="line"/>
      <point x="285.6" y="-100.0" type="line"/>
      <point x="340.2" y="158.2" type="line"/>
      <point x="232.4" y="194.2" type="line"/>
    </contour>
    <contour>
      <point x="295.4" y="528.4" type="line"/>
      <point x="402.6" y="492.4" type="line"/>
      <point x="466.2" y="790.0" type="line"/>
      <point x="351.0" y="790.0" type="line"/>
    </contour>
  </outline>
</glyph>
<glyph name="percent" format="1">
  <advance width="943.6201088014066"/>
  <unicode hex="0025"/>
  <outline>
    <contour>
      <point x="113.39999999999999" y="490.4" type="curve"/>
      <point x="113.39999999999999" y="401.20000000000005"/>
      <point x="173.8" y="344.20000000000005"/>
      <point x="256.0" y="344.20000000000005" type="curve"/>
      <point x="388.4" y="344.20000000000005"/>
      <point x="455.8" y="453.0"/>
      <point x="455.8" y="555.4" type="curve"/>
      <point x="455.8" y="644.2"/>
      <point x="395.6" y="701.2"/>
      <point x="312.2" y="701.2" type="curve"/>
      <point x="189.6" y="701.2"/>
      <point x="113.39999999999999" y="596.8"/>
    </contour>
    <contour>
      <point x="207.8" y="497.4" type="curve"/>
      <point x="207.8" y="559.6"/>
      <point x="245.0" y="615.8"/>
      <point x="303.0" y="615.8" type="curve"/>
      <point x="340.79999999999995" y="615.8"/>
      <point x="364.6" y="590.5999999999999"/>
      <point x="364.6" y="547.8" type="curve"/>
      <point x="364.6" y="484.8"/>
      <point x="327.4" y="430.20000000000005"/>
      <point x="269.4" y="430.20000000000005" type="curve"/>
      <point x="232.0" y="430.20000000000005"/>
      <point x="207.8" y="454.79999999999995"/>
    </contour>
    <contour>
      <point x="129.0" y="0.0" type="line"/>
      <point x="249.8" y="0.0" type="line"/>
      <point x="839.2" y="690.0" type="line"/>
      <point x="718.4" y="690.0" type="line"/>
    </contour>
    <contour>
      <point x="514.4" y="135.0" type="curve"/>
      <point x="514.4" y="45.8"/>
      <point x="575.2" y="-11.2"/>
      <point x="657.4" y="-11.2" type="curve"/>
      <point x="789.8" y="-11.2"/>
      <point x="856.8000000000001" y="97.6"/>
      <point x="856.8000000000001" y="200.0" type="curve"/>
      <point x="856.8000000000001" y="288.8"/>
      <point x="796.5999999999999" y="345.8"/>
      <point x="713.2" y="345.8" type="curve"/>
      <point x="590.2" y="345.8"/>
      <point x="514.4" y="241.39999999999998"/>
    </contour>
    <contour>
      <point x="608.8" y="142.0" type="curve"/>
      <point x="608.8" y="203.8"/>
      <point x="646.0" y="260.0"/>
      <point x="704.0" y="260.0" type="curve"/>
      <point x="741.4" y="260.0"/>
      <point x="765.6" y="235.20000000000002"/>
      <point x="765.6" y="192.0" type="curve"/>
      <point x="765.6" y="129.4"/>
      <point x="728.0" y="74.80000000000001"/>
      <point x="670.4" y="74.80000000000001" type="curve"/>
      <point x="633.0" y="74.80000000000001"/>
      <point x="608.8" y="99.39999999999999"/>
    </contour>
  </outline>
</glyph>
<glyph name="ampersand" format="1">
  <advance width="663.2"/>
  <unicode hex="0026"/>
  <outline>
    <contour>
      <point x="23.2" y="153.2" type="curve"/>
      <point x="23.2" y="58.199999999999996"/>
      <point x="99.4" y="-11.2"/>
      <point x="209.2" y="-11.2" type="curve"/>
      <point x="398.2" y="-11.2"/>
      <point x="533.8" y="146.2"/>
      <point x="612.6" y="298.8" type="curve"/>
      <point x="514.8" y="341.20000000000005" type="line"/>
      <point x="456.2" y="218.8"/>
      <point x="339.0" y="100.0"/>
      <point x="237.0" y="100.0" type="curve"/>
      <point x="183.2" y="100.0"/>
      <point x="151.0" y="127.8"/>
      <point x="151.0" y="170.2" type="curve"/>
      <point x="151.0" y="217.4"/>
      <point x="186.0" y="255.20000000000002"/>
      <point x="260.6" y="288.6" type="curve" smooth="yes"/>
      <point x="383.79999999999995" y="351.0" type="line" smooth="yes"/>
      <point x="499.6" y="401.8"/>
      <point x="554.6" y="465.20000000000005"/>
      <point x="554.6" y="547.4" type="curve"/>
      <point x="554.6" y="627.8"/>
      <point x="491.79999999999995" y="700.5999999999999"/>
      <point x="376.20000000000005" y="700.5999999999999" type="curve"/>
      <point x="237.6" y="700.5999999999999"/>
      <point x="171.4" y="616.4000000000001"/>
      <point x="171.4" y="520.2" type="curve"/>
      <point x="171.4" y="448.6"/>
      <point x="211.0" y="392.4"/>
      <point x="240.4" y="345.20000000000005" type="curve" smooth="yes"/>
      <point x="453.20000000000005" y="0.0" type="line"/>
      <point x="592.0" y="0.0" type="line"/>
      <point x="337.4" y="404.8" type="line" smooth="yes"/>
      <point x="309.6" y="449.2"/>
      <point x="291.79999999999995" y="482.8"/>
      <point x="291.79999999999995" y="522.8" type="curve"/>
      <point x="291.79999999999995" y="573.6"/>
      <point x="327.20000000000005" y="603.6"/>
      <point x="373.6" y="603.6" type="curve"/>
      <point x="418.6" y="603.6"/>
      <point x="439.20000000000005" y="571.8"/>
      <point x="438.40000000000003" y="537.2" type="curve"/>
      <point x="437.20000000000005" y="494.2"/>
      <point x="402.0" y="463.2"/>
      <point x="339.0" y="433.6" type="curve" smooth="yes"/>
      <point x="212.6" y="373.0" type="line" smooth="yes"/>
      <point x="85.4" y="315.0"/>
      <point x="23.2" y="246.6"/>
    </contour>
  </outline>
</glyph>
<glyph name="quotesingle" format="1">
  <advance width="242.37556535855046"/>
  <unicode hex="0027"/>
  <outline>
    <contour>
      <point x="103.8" y="407.4" type="line"/>
      <point x="191.39999999999998" y="407.4" type="line"/>
      <point x="286.2" y="720.0" type="line"/>
      <point x="142.2" y="720.0" type="line"/>
    </contour>
  </outline>
</glyph>
<glyph name="parenleft" format="1">
  <advance width="295.03447968426576"/>
  <unicode hex="0028"/>
  <outline>
    <contour>
      <point x="48.0" y="142.6" type="curve" smooth="yes"/>
      <point x="48.400000000000006" y="-0.8000000000000007"/>
      <point x="94.80000000000001" y="-141.4"/>
      <point x="164.0" y="-248.8" type="curve"/>
      <point x="239.39999999999998" y="-199.8" type="line"/>
      <point x="198.0" y="-111.8"/>
      <point x="163.4" y="12.0"/>
      <point x="163.4" y="137.8" type="curve" smooth="yes"/>
      <point x="163.4" y="340.8"/>
      <point x="259.4" y="563.2"/>
      <point x="433.4" y="726.8" type="curve"/>
      <point x="383.6" y="784.2" type="line"/>
      <point x="184.39999999999998" y="635.4000000000001"/>
      <point x="47.6" y="399.79999999999995"/>
    </contour>
  </outline>
</glyph>
<glyph name="asterisk" format="1">
  <advance width="598.389343600663"/>
  <unicode hex="002A"/>
  <outline>
    <contour>
      <point x="102.2" y="505.8" type="line"/>
      <point x="263.4" y="464.20000000000005" type="line"/>
      <point x="112.2" y="322.4" type="line"/>
      <point x="196.39999999999998" y="249.2" type="line"/>
      <point x="326.8" y="410.4" type="line"/>
      <point x="396.6" y="247.8" type="line"/>
      <point x="504.2" y="313.8" type="line"/>
      <point x="404.4" y="458.4" type="line"/>
      <point x="589.4" y="497.8" type="line"/>
      <point x="577.0" y="614.4" type="line"/>
      <point x="394.0" y="541.2" type="line"/>
      <point x="449.4" y="720.0" type="line"/>
      <point x="322.2" y="720.0" type="line"/>
      <point x="308.0" y="542.4" type="line"/>
      <point x="149.0" y="617.2" type="line"/>
    </contour>
  </outline>
</glyph>
<glyph name="plus" format="1">
  <advance width="600.0"/>
  <unicode hex="002B"/>
  <outline>
    <contour>
      <point x="55.8" y="233.39999999999998" type="line"/>
      <point x="523.0" y="233.39999999999998" type="line"/>
      <point x="547.2" y="346.6" type="line"/>
      <point x="80.0" y="346.6" type="line"/>
    </contour>
    <contour>
      <point x="193.60000000000002" y="59.0" type="line"/>
      <point x="312.0" y="59.0" type="line"/>
      <point x="410.0" y="521.0" type="line"/>
      <point x="292.0" y="521.0" type="line"/>
    </contour>
  </outline>
</glyph>
<glyph name="hyphen" format="1">
  <advance width="373.8814477722327"/>
  <unicode hex="002D"/>
  <outline>
    <contour>
      <point x="38.8" y="225.39999999999998" type="line"/>
      <point x="310.79999999999995" y="225.39999999999998" type="line"/>
      <point x="332.8" y="328.0" type="line"/>
      <point x="60.8" y="328.0" type="line"/>
    </contour>
  </outline>
</glyph>
<glyph name="period" format="1">
  <advance width="244.94234777067817"/>
  <unicode hex="002E"/>
  <outline>
    <contour>
      <point x="-5.4" y="56.0" type="curve" smooth="yes"/>
      <point x="-5.4" y="14.799999999999999"/>
      <point x="22.4" y="-11.2"/>
      <point x="65.6" y="-11.2" type="curve" smooth="yes"/>
      <point x="115.6" y="-11.2"/>
      <point x="159.4" y="29.2"/>
      <point x="159.4" y="80.8" type="curve" smooth="yes"/>
      <point x="159.4" y="122.6"/>
      <point x="131.60000000000002" y="148.0"/>
      <point x="88.4" y="148.0" type="curve" smooth="yes"/>
      <point x="38.4" y="148.0"/>
      <point x="-5.4" y="107.6"/>
    </contour>
  </outline>
</glyph>
<glyph name="slash" format="1">
  <advance width="381.75927559758406"/>
  <unicode hex="002F"/>
  <outline>
    <contour>
      <point x="-66.0" y="-30.0" type="line"/>
      <point x="68.0" y="-30.0" type="line"/>
      <point x="474.8" y="720.0" type="line"/>
      <point x="340.8" y="720.0" type="line"/>
    </contour>
  </outline>
</glyph>
<glyph name="four" format="1">
  <advance width="600.0"/>
  <unicode hex="0034"/>
  <outline>
    <contour>
      <point x="-2.5999999999999996" y="124.4" type="line"/>
      <point x="524.2" y="124.4" type="line"/>
      <point x="548.2" y="237.2" type="line"/>
      <point x="70.19999999999999" y="237.2" type="line"/>
      <point x="20.6" y="221.6" type="line"/>
    </contour>
    <contour>
      <point x="20.6" y="221.6" type="line"/>
      <point x="80.6" y="124.4" type="line"/>
      <point x="519.5999999999999" y="690.0" type="line"/>
      <point x="393.4" y="690.0" type="line"/>
    </contour>
    <contour>
      <point x="285.8" y="0.0" type="line"/>
      <point x="423.0" y="0.0" type="line"/>
      <point x="566.6" y="690.0" type="line"/>
      <point x="443.20000000000005" y="690.0" type="line"/>
    </contour>
  </outline>
</glyph>
<glyph name="eight" format="1">
  <advance width="600.0"/>
  <unicode hex="0038"/>
  <outline>
    <contour>
      <point x="23.200000000000003" y="159.6" type="curve"/>
      <point x="23.200000000000003" y="62.6"/>
      <point x="114.2" y="-11.2"/>
      <point x="256.2" y="-11.2" type="curve"/>
      <point x="434.0" y="-11.2"/>
      <point x="538.6" y="102.8"/>
      <point x="538.6" y="210.39999999999998" type="curve"/>
      <point x="538.6" y="298.0"/>
      <point x="486.20000000000005" y="357.0"/>
      <point x="350.20000000000005" y="408.0" type="curve" smooth="yes"/>
      <point x="271.0" y="439.0"/>
      <point x="248.60000000000002" y="471.8"/>
      <point x="248.0" y="506.4" type="curve"/>
      <point x="247.39999999999998" y="544.0"/>
      <point x="284.6" y="593.5999999999999"/>
      <point x="366.2" y="593.5999999999999" type="curve"/>
      <point x="422.4" y="593.5999999999999"/>
      <point x="456.0" y="564.8"/>
      <point x="456.0" y="523.0" type="curve"/>
      <point x="456.0" y="475.6"/>
      <point x="404.8" y="425.20000000000005"/>
      <point x="316.6" y="404.4" type="curve"/>
      <point x="391.4" y="358.4" type="line"/>
      <point x="506.2" y="384.6"/>
      <point x="577.8" y="466.2"/>
      <point x="577.8" y="545.6" type="curve"/>
      <point x="577.8" y="634.2"/>
      <point x="504.2" y="701.2"/>
      <point x="375.4" y="701.2" type="curve"/>
      <point x="218.6" y="701.2"/>
      <point x="113.2" y="607.0"/>
      <point x="113.2" y="500.0" type="curve"/>
      <point x="113.2" y="421.0"/>
      <point x="168.8" y="353.20000000000005"/>
      <point x="294.0" y="299.8" type="curve" smooth="yes"/>
      <point x="377.79999999999995" y="264.0"/>
      <point x="403.8" y="236.0"/>
      <point x="403.8" y="197.2" type="curve"/>
      <point x="403.8" y="151.2"/>
      <point x="355.2" y="98.60000000000001"/>
      <point x="266.4" y="98.60000000000001" type="curve"/>
      <point x="194.2" y="98.60000000000001"/>
      <point x="152.4" y="137.4"/>
      <point x="152.4" y="181.8" type="curve"/>
      <point x="152.4" y="233.20000000000002"/>
      <point x="208.2" y="292.0"/>
      <point x="298.2" y="310.4" type="curve"/>
      <point x="222.0" y="361.79999999999995" type="line"/>
      <point x="95.2" y="325.2"/>
      <point x="23.200000000000003" y="247.4"/>
    </contour>
  </outline>
</glyph>
<glyph name="nine" format="1">
  <advance width="600.0"/>
  <unicode hex="0039"/>
  <outline>
    <contour>
      <point x="20.4" y="37.0" type="line"/>
      <point x="63.8" y="5.4"/>
      <point x="116.80000000000001" y="-11.2"/>
      <point x="190.8" y="-11.2" type="curve"/>
      <point x="383.0" y="-11.2"/>
      <point x="576.0" y="186.8"/>
      <point x="576.0" y="467.40000000000003" type="curve"/>
      <point x="576.0" y="591.8"/>
      <point x="506.4" y="701.2"/>
      <point x="348.8" y="701.2" type="curve"/>
      <point x="191.2" y="701.2"/>
      <point x="78.0" y="577.5999999999999"/>
      <point x="78.0" y="439.4" type="curve"/>
      <point x="78.0" y="325.6"/>
      <point x="161.2" y="247.20000000000002"/>
      <point x="275.6" y="247.20000000000002" type="curve"/>
      <point x="346.0" y="247.20000000000002"/>
      <point x="413.6" y="280.6"/>
      <point x="452.79999999999995" y="338.0" type="curve"/>
      <point x="460.0" y="424.8" type="line"/>
      <point x="421.4" y="381.8"/>
      <point x="372.0" y="351.0"/>
      <point x="314.0" y="351.0" type="curve"/>
      <point x="248.39999999999998" y="351.0"/>
      <point x="208.0" y="384.79999999999995"/>
      <point x="208.0" y="446.20000000000005" type="curve"/>
      <point x="208.0" y="525.0"/>
      <point x="265.20000000000005" y="587.0"/>
      <point x="342.4" y="587.0" type="curve"/>
      <point x="410.4" y="587.0"/>
      <point x="452.6" y="533.4000000000001"/>
      <point x="452.6" y="464.2" type="curve"/>
      <point x="452.6" y="231.0"/>
      <point x="308.2" y="107.2"/>
      <point x="187.4" y="107.2" type="curve"/>
      <point x="152.8" y="107.2"/>
      <point x="110.80000000000001" y="117.0"/>
      <point x="80.2" y="139.6" type="curve"/>
    </contour>
  </outline>
</glyph>
<glyph name="semicolon" format="1">
  <advance width="244.94234777067817"/>
  <unicode hex="003B"/>
  <outline>
    <contour>
      <point x="-43.0" y="-171.8" type="line"/>
      <point x="32.6" y="-171.8" type="line"/>
      <point x="116.39999999999999" y="-36.2" type="line" smooth="yes"/>
      <point x="142.8" y="6.2"/>
      <point x="160.4" y="38.8"/>
      <point x="160.4" y="76.0" type="curve"/>
      <point x="160.4" y="121.8"/>
      <point x="129.8" y="148.4"/>
      <point x="86.6" y="148.4" type="curve"/>
      <point x="37.400000000000006" y="148.4"/>
      <point x="-4.8" y="110.6"/>
      <point x="-4.8" y="58.599999999999994" type="curve" smooth="yes"/>
      <point x="-4.8" y="23.8"/>
      <point x="19.599999999999998" y="0.4"/>
      <point x="34.8" y="-5.0" type="curve"/>
    </contour>
    <contour>
      <point x="76.6" y="440.2" type="curve" smooth="yes"/>
      <point x="76.6" y="399.0"/>
      <point x="104.4" y="373.0"/>
      <point x="147.6" y="373.0" type="curve" smooth="yes"/>
      <point x="197.6" y="373.0"/>
      <point x="241.39999999999998" y="413.4"/>
      <point x="241.39999999999998" y="465.0" type="curve" smooth="yes"/>
      <point x="241.39999999999998" y="506.8"/>
      <point x="213.60000000000002" y="532.2"/>
      <point x="170.4" y="532.2" type="curve" smooth="yes"/>
      <point x="120.4" y="532.2"/>
      <point x="76.6" y="491.79999999999995"/>
    </contour>
  </outline>
</glyph>
<glyph name="B" format="1">
  <advance width="622.5461530114424"/>
  <unicode hex="0042"/>
  <outline>
    <contour>
      <point x="21.2" y="0.0" type="line"/>
      <point x="156.0" y="0.0" type="line"/>
      <point x="303.0" y="690.0" type="line"/>
      <point x="168.2" y="690.0" type="line"/>
    </contour>
    <contour>
      <point x="84.0" y="0.0" type="line"/>
      <point x="279.6" y="0.0" type="line" smooth="yes"/>
      <point x="442.8" y="0.0"/>
      <point x="558.8" y="93.6"/>
      <point x="558.8" y="219.8" type="curve"/>
      <point x="558.8" y="319.2"/>
      <point x="475.5400000000001" y="383.2"/>
      <point x="354.8" y="383.2" type="curve" smooth="yes"/>
      <point x="165.2" y="383.2" type="line"/>
      <point x="147.4" y="301.2" type="line"/>
      <point x="332.0" y="301.2" type="line" smooth="yes"/>
      <point x="388.8" y="301.2"/>
      <point x="425.4" y="273.0"/>
      <point x="425.4" y="222.0" type="curve"/>
      <point x="425.4" y="162.4"/>
      <point x="371.4" y="110.19999999999999"/>
      <point x="292.2" y="110.19999999999999" type="curve" smooth="yes"/>
      <point x="107.6" y="110.19999999999999" type="line"/>
    </contour>
    <contour>
      <point x="154.4" y="331.2" type="line"/>
      <point x="320.6" y="331.2" type="line" smooth="yes"/>
      <point x="473.45274725274726" y="331.2"/>
      <point x="596.8" y="417.4"/>
      <point x="596.8" y="532.4" type="curve"/>
      <point x="596.8" y="628.2"/>
      <point x="517.2" y="690.0"/>
      <point x="402.8" y="690.0" type="curve" smooth="yes"/>
      <point x="231.0" y="690.0" type="line"/>
      <point x="206.39999999999998" y="579.8" type="line"/>
      <point x="371.0" y="579.8" type="line" smooth="yes"/>
      <point x="425.8" y="579.8"/>
      <point x="460.79999999999995" y="553.4"/>
      <point x="460.79999999999995" y="507.4" type="curve"/>
      <point x="460.79999999999995" y="453.2"/>
      <point x="412.2" y="400.6"/>
      <point x="334.6" y="400.6" type="curve" smooth="yes"/>
      <point x="170.0" y="400.6" type="line"/>
    </contour>
  </outline>
</glyph>
<glyph name="C" format="1">
  <advance width="629.0349547248491"/>
  <unicode hex="0043"/>
  <outline>
    <contour>
      <point x="51.599999999999994" y="245.4" type="curve"/>
      <point x="51.599999999999994" y="82.6"/>
      <point x="152.4" y="-11.2"/>
      <point x="306.4" y="-11.2" type="curve"/>
      <point x="392.2" y="-11.2"/>
      <point x="480.4" y="20.8"/>
      <point x="551.6" y="78.2" type="curve"/>
      <point x="482.4" y="183.8" type="line"/>
      <point x="437.6" y="144.0"/>
      <point x="377.0" y="114.8"/>
      <point x="323.8" y="114.8" type="curve"/>
      <point x="242.0" y="114.8"/>
      <point x="191.0" y="163.2"/>
      <point x="191.0" y="262.8" type="curve"/>
      <point x="191.0" y="437.8"/>
      <point x="302.2" y="576.4"/>
      <point x="430.8" y="576.4" type="curve" smooth="yes"/>
      <point x="484.4" y="576.4"/>
      <point x="524.4000000000001" y="557.4"/>
      <point x="559.4" y="519.2" type="curve"/>
      <point x="657.8" y="616.8" type="line"/>
      <point x="595.4" y="674.6"/>
      <point x="533.0" y="701.2"/>
      <point x="455.4" y="701.2" type="curve" smooth="yes"/>
      <point x="234.6" y="701.2"/>
      <point x="51.599999999999994" y="493.0"/>
    </contour>
    <contour>
      <point x="441.2" y="690.0" type="move" name="top"/>
    </contour>
    <contour>
      <point x="301.20000000000005" y="0.0" type="move" name="bottom"/>
    </contour>
  </outline>
</glyph>
<glyph name="D" format="1">
  <advance width="696.9364663402799"/>
  <unicode hex="0044"/>
  <outline>
    <contour>
      <point x="21.2" y="0.0" type="line"/>
      <point x="156.0" y="0.0" type="line"/>
      <point x="303.0" y="690.0" type="line"/>
      <point x="168.2" y="690.0" type="line"/>
    </contour>
    <contour>
      <point x="84.0" y="0.0" type="line"/>
      <point x="241.8" y="0.0" type="line" smooth="yes"/>
      <point x="486.20000000000005" y="0.0"/>
      <point x="669.6" y="189.2"/>
      <point x="670.2" y="433.0" type="curve" smooth="yes"/>
      <point x="671.2" y="591.0"/>
      <point x="559.6" y="690.0"/>
      <point x="394.8" y="690.0" type="curve" smooth="yes"/>
      <point x="231.0" y="690.0" type="line"/>
      <point x="205.4" y="572.0" type="line"/>
      <point x="366.4" y="572.0" type="line" smooth="yes"/>
      <point x="468.4" y="572.0"/>
      <point x="530.2" y="514.4000000000001"/>
      <point x="531.2" y="414.79999999999995" type="curve" smooth="yes"/>
      <point x="530.2" y="251.60000000000002"/>
      <point x="404.2" y="118.0"/>
      <point x="255.8" y="118.0" type="curve" smooth="yes"/>
      <point x="108.8" y="118.0" type="line"/>
    </contour>
    <contour>
      <point x="394.0" y="690.0" type="move" name="top"/>
    </contour>
  </outline>
</glyph>
<glyph name="F" format="1">
  <advance width="567.5628955444655"/>
  <unicode hex="0046"/>
  <outline>
    <contour>
      <point x="21.2" y="0.0" type="line"/>
      <point x="156.0" y="0.0" type="line"/>
      <point x="303.0" y="690.0" type="line"/>
      <point x="168.2" y="690.0" type="line"/>
    </contour>
    <contour>
      <point x="139.8" y="261.0" type="line"/>
      <point x="489.0" y="261.0" type="line"/>
      <point x="513.6" y="378.6" type="line"/>
      <point x="164.4" y="378.6" type="line"/>
    </contour>
    <contour>
      <point x="205.4" y="572.0" type="line"/>
      <point x="594.2" y="572.0" type="line"/>
      <point x="619.4" y="690.0" type="line"/>
      <point x="230.6" y="690.0" type="line"/>
    </contour>
  </outline>
</glyph>
<glyph name="G" format="1">
  <advance width="688.2820360652308"/>
  <unicode hex="0047"/>
  <outline>
    <contour>
      <point x="51.599999999999994" y="245.4" type="curve" smooth="yes"/>
      <point x="51.599999999999994" y="83.4"/>
      <point x="156.8" y="-11.2"/>
      <point x="314.4" y="-11.2" type="curve"/>
      <point x="407.6" y="-11.2"/>
      <point x="511.8" y="24.8"/>
      <point x="583.0" y="82.6" type="curve"/>
      <point x="502.4" y="156.2" type="line"/>
      <point x="459.2" y="125.0"/>
      <point x="393.4" y="103.60000000000001"/>
      <point x="339.0" y="103.60000000000001" type="curve"/>
      <point x="246.39999999999998" y="103.60000000000001"/>
      <point x="191.0" y="159.0"/>
      <point x="191.0" y="262.8" type="curve" smooth="yes"/>
      <point x="191.0" y="437.8"/>
      <point x="303.0" y="576.4"/>
      <point x="434.6" y="576.4" type="curve" smooth="yes"/>
      <point x="490.2" y="576.4"/>
      <point x="532.2" y="557.4"/>
      <point x="568.2" y="519.2" type="curve"/>
      <point x="666.5999999999999" y="616.8" type="line"/>
      <point x="602.6" y="674.6"/>
      <point x="536.0" y="701.2"/>
      <point x="459.2" y="701.2" type="curve" smooth="yes"/>
      <point x="235.39999999999998" y="701.2"/>
      <point x="51.599999999999994" y="493.0"/>
    </contour>
    <contour>
      <point x="354.6" y="255.8" type="line"/>
      <point x="561.8" y="255.8" type="line"/>
      <point x="585.4000000000001" y="368.4" type="line"/>
      <point x="378.2" y="368.4" type="line"/>
    </contour>
    <contour>
      <point x="451.0" y="74.4" type="line"/>
      <point x="583.0" y="82.6" type="line"/>
      <point x="643.8" y="368.4" type="line"/>
      <point x="513.4" y="368.4" type="line"/>
    </contour>
    <contour>
      <point x="444.59999999999997" y="690.0" type="move" name="top"/>
    </contour>
    <contour>
      <point x="314.4" y="0.0" type="move" name="bottom"/>
    </contour>
  </outline>
</glyph>
<glyph name="J" format="1">
  <advance width="534.0015834686109"/>
  <unicode hex="004A"/>
  <outline>
    <contour>
      <point x="-24.4" y="68.4" type="line"/>
      <point x="23.4" y="18.0"/>
      <point x="86.8" y="-11.2"/>
      <point x="173.2" y="-11.2" type="curve"/>
      <point x="300.0" y="-11.2"/>
      <point x="414.0" y="65.2"/>
      <point x="450.6" y="237.4" type="curve" smooth="yes"/>
      <point x="547.2" y="690.0" type="line"/>
      <point x="415.6" y="690.0" type="line"/>
      <point x="322.2" y="253.4" type="line" smooth="yes"/>
      <point x="300.6" y="151.8"/>
      <point x="241.8" y="109.8"/>
      <point x="171.60000000000002" y="109.8" type="curve"/>
      <point x="124.8" y="109.8"/>
      <point x="85.4" y="129.6"/>
      <point x="53.8" y="163.6" type="curve"/>
    </contour>
    <contour>
      <point x="222.4" y="588.0" type="line"/>
      <point x="478.4" y="588.0" type="line"/>
      <point x="500.4" y="690.0" type="line"/>
      <point x="244.4" y="690.0" type="line"/>
    </contour>
    <contour>
      <point x="401.6" y="690.0" type="move" name="top"/>
    </contour>
  </outline>
</glyph>
<glyph name="K" format="1">
  <advance width="639.2"/>
  <unicode hex="004B"/>
  <outline>
    <contour>
      <point x="21.2" y="0.0" type="line"/>
      <point x="156.0" y="0.0" type="line"/>
      <point x="303.0" y="690.0" type="line"/>
      <point x="168.2" y="690.0" type="line"/>
    </contour>
    <contour>
      <point x="144.6" y="141.6" type="line"/>
      <point x="704.2" y="690.0" type="line"/>
      <point x="532.8" y="690.0" type="line"/>
      <point x="180.0" y="320.4" type="line"/>
    </contour>
    <contour>
      <point x="287.6" y="306.79999999999995" type="line"/>
      <point x="423.6" y="0.0" type="line"/>
      <point x="573.2" y="0.0" type="line"/>
      <point x="381.6" y="403.0" type="line"/>
    </contour>
    <contour>
      <point x="297.4" y="0.0" type="move" name="bottom"/>
    </contour>
  </outline>
</glyph>
<glyph name="L" format="1">
  <advance width="552.5452488197182"/>
  <unicode hex="004C"/>
  <outline>
    <contour>
      <point x="21.2" y="0.0" type="line"/>
      <point x="156.0" y="0.0" type="line"/>
      <point x="303.0" y="690.0" type="line"/>
      <point x="168.2" y="690.0" type="line"/>
    </contour>
    <contour>
      <point x="84.0" y="0.0" type="line"/>
      <point x="468.4" y="0.0" type="line"/>
      <point x="493.6" y="118.0" type="line"/>
      <point x="109.19999999999999" y="118.0" type="line"/>
    </contour>
    <contour>
      <point x="235.4" y="690.0" type="move" name="top"/>
    </contour>
    <contour>
      <point x="451.8" y="680.0" type="move" name="caron.alt"/>
    </contour>
    <contour>
      <point x="259.8" y="0.0" type="move" name="bottom"/>
    </contour>
  </outline>
</glyph>
<glyph name="M" format="1">
  <advance width="826.2015834686108"/>
  <unicode hex="004D"/>
  <outline>
    <contour>
      <point x="21.2" y="0.0" type="line"/>
      <point x="150.6" y="0.0" type="line"/>
      <point x="297.6" y="690.0" type="line"/>
      <point x="168.2" y="690.0" type="line"/>
    </contour>
    <contour>
      <point x="237.2" y="690.0" type="line"/>
      <point x="339.20000000000005" y="149.8" type="line"/>
      <point x="389.8" y="149.8" type="line"/>
      <point x="423.79999999999995" y="309.0" type="line"/>
      <point x="353.8" y="690.0" type="line"/>
    </contour>
    <contour>
      <point x="376.20000000000005" y="149.8" type="line"/>
      <point x="432.0" y="149.8" type="line"/>
      <point x="764.2" y="690.0" type="line"/>
      <point x="633.6" y="690.0" type="line"/>
      <point x="410.20000000000005" y="309.0" type="line"/>
    </contour>
    <contour>
      <point x="555.0" y="0.0" type="line"/>
      <point x="684.8" y="0.0" type="line"/>
      <point x="831.4" y="690.0" type="line"/>
      <point x="702.0" y="690.0" type="line"/>
    </contour>
  </outline>
</glyph>
<glyph name="O" format="1">
  <advance width="724.9093845875807"/>
  <unicode hex="004F"/>
  <outline>
    <contour>
      <point x="51.599999999999994" y="245.4" type="curve"/>
      <point x="51.599999999999994" y="82.6"/>
      <point x="154.0" y="-11.2"/>
      <point x="300.2" y="-11.2" type="curve"/>
      <point x="515.0" y="-11.2"/>
      <point x="699.5999999999999" y="197.0"/>
      <point x="700.2" y="444.6" type="curve"/>
      <point x="699.5999999999999" y="607.4"/>
      <point x="597.2" y="701.2"/>
      <point x="452.0" y="701.2" type="curve"/>
      <point x="236.2" y="701.2"/>
      <point x="51.599999999999994" y="493.0"/>
    </contour>
    <contour>
      <point x="191.0" y="262.8" type="curve"/>
      <point x="191.0" y="440.0"/>
      <point x="303.79999999999995" y="580.2"/>
      <point x="427.0" y="580.2" type="curve"/>
      <point x="507.6" y="580.2"/>
      <point x="560.8" y="529.0"/>
      <point x="561.2" y="427.2" type="curve"/>
      <point x="560.8" y="250.0"/>
      <point x="447.4" y="109.8"/>
      <point x="324.8" y="109.8" type="curve"/>
      <point x="243.60000000000002" y="109.8"/>
      <point x="191.0" y="161.0"/>
    </contour>
    <contour>
      <point x="448.79999999999995" y="690.0" type="move" name="top"/>
    </contour>
    <contour>
      <point x="360.0" y="0.0" type="move" name="ogonek"/>
    </contour>
    <contour>
      <point x="298.6" y="0.0" type="move" name="bottom"/>
    </contour>
  </outline>
</glyph>
<glyph name="P" format="1">
  <advance width="621.0992378295118"/>
  <unicode hex="0050"/>
  <outline>
    <contour>
      <point x="21.2" y="0.0" type="line"/>
      <point x="156.0" y="0.0" type="line"/>
      <point x="303.0" y="690.0" type="line"/>
      <point x="168.2" y="690.0" type="line"/>
    </contour>
    <contour>
      <point x="127.19999999999999" y="205.60000000000002" type="line"/>
      <point x="296.0" y="205.60000000000002" type="line" smooth="yes"/>
      <point x="489.8" y="205.60000000000002"/>
      <point x="621.8" y="324.4"/>
      <point x="621.8" y="484.4" type="curve" smooth="yes"/>
      <point x="621.8" y="607.8"/>
      <point x="527.5999999999999" y="690.0"/>
      <point x="392.20000000000005" y="690.0" type="curve" smooth="yes"/>
      <point x="231.0" y="690.0" type="line"/>
      <point x="205.4" y="573.2" type="line"/>
      <point x="360.0" y="573.2" type="line" smooth="yes"/>
      <point x="441.0" y="573.2"/>
      <point x="483.0" y="536.0"/>
      <point x="483.0" y="471.79999999999995" type="curve"/>
      <point x="483.0" y="384.2"/>
      <point x="415.4" y="322.0"/>
      <point x="303.0" y="322.0" type="curve" smooth="yes"/>
      <point x="152.8" y="322.0" type="line"/>
    </contour>
  </outline>
</glyph>
<glyph name="T" format="1">
  <advance width="574.1628955444655"/>
  <unicode hex="0054"/>
  <outline>
    <contour>
      <point x="86.4" y="572.0" type="line"/>
      <point x="611.6" y="572.0" type="line"/>
      <point x="636.8" y="690.0" type="line"/>
      <point x="111.6" y="690.0" type="line"/>
    </contour>
    <contour>
      <point x="160.2" y="0.0" type="line"/>
      <point x="294.6" y="0.0" type="line"/>
      <point x="441.59999999999997" y="690.0" type="line"/>
      <point x="306.8" y="690.0" type="line"/>
    </contour>
    <contour>
      <point x="374.4" y="690.0" type="move" name="top"/>
    </contour>
    <contour>
      <point x="230.0" y="0.0" type="move" name="bottom"/>
    </contour>
  </outline>
</glyph>
<glyph name="U" format="1">
  <advance width="699.334388979074"/>
  <unicode hex="0055"/>
  <outline>
    <contour>
      <point x="66.8" y="216.6" type="curve" smooth="yes"/>
      <point x="66.8" y="83.4"/>
      <point x="158.2" y="-11.2"/>
      <point x="300.8" y="-11.2" type="curve"/>
      <point x="452.6" y="-11.2"/>
      <point x="581.4" y="72.4"/>
      <point x="620.8" y="258.6" type="curve" smooth="yes"/>
      <point x="713.0" y="690.0" type="line"/>
      <point x="581.4" y="690.0" type="line"/>
      <point x="494.6" y="283.4" type="line" smooth="yes"/>
      <point x="468.8" y="164.2"/>
      <point x="398.2" y="109.8"/>
      <point x="321.0" y="109.8" type="curve"/>
      <point x="248.0" y="109.8"/>
      <point x="201.2" y="146.39999999999998"/>
      <point x="201.2" y="226.0" type="curve" smooth="yes"/>
      <point x="201.2" y="243.0"/>
      <point x="203.60000000000002" y="263.20000000000005"/>
      <point x="208.60000000000002" y="284.6" type="curve" smooth="yes"/>
      <point x="295.0" y="690.0" type="line"/>
      <point x="160.2" y="690.0" type="line"/>
      <point x="75.4" y="291.20000000000005" type="line" smooth="yes"/>
      <point x="68.80000000000001" y="261.0"/>
      <point x="66.8" y="237.8"/>
    </contour>
    <contour>
      <point x="438.0" y="690.0" type="move" name="top"/>
    </contour>
    <contour>
      <point x="354.0" y="0.0" type="move" name="ogonek"/>
    </contour>
    <contour>
      <point x="295.2" y="0.0" type="move" name="bottom"/>
    </contour>
  </outline>
</glyph>
<glyph name="V" format="1">
  <advance width="623.2"/>
  <unicode hex="0056"/>
  <outline>
    <contour>
      <point x="91.0" y="690.0" type="line"/>
      <point x="198.8" y="0.0" type="line"/>
      <point x="262.8" y="0.0" type="line"/>
      <point x="292.2" y="128.2" type="line"/>
      <point x="225.8" y="690.0" type="line"/>
    </contour>
    <contour>
      <point x="238.0" y="0.0" type="line"/>
      <point x="303.2" y="0.0" type="line"/>
      <point x="706.2" y="690.0" type="line"/>
      <point x="563.4" y="690.0" type="line"/>
      <point x="256.2" y="128.2" type="line"/>
    </contour>
  </outline>
</glyph>
<glyph name="W" format="1">
  <advance width="931.5359724476848"/>
  <unicode hex="0057"/>
  <outline>
    <contour>
      <point x="91.8" y="690.0" type="line"/>
      <point x="155.8" y="0.0" type="line"/>
      <point x="223.0" y="0.0" type="line"/>
      <point x="255.0" y="132.6" type="line"/>
      <point x="226.79999999999998" y="690.0" type="line"/>
    </contour>
    <contour>
      <point x="198.2" y="0.0" type="line"/>
      <point x="263.4" y="0.0" type="line"/>
      <point x="554.4" y="561.4000000000001" type="line"/>
      <point x="579.5999999999999" y="690.0" type="line"/>
      <point x="494.79999999999995" y="690.0" type="line"/>
      <point x="220.2" y="132.6" type="line"/>
    </contour>
    <contour>
      <point x="500.4" y="561.4000000000001" type="line"/>
      <point x="547.4" y="0.0" type="line"/>
      <point x="614.6" y="0.0" type="line"/>
      <point x="646.6" y="132.6" type="line"/>
      <point x="607.8" y="690.0" type="line"/>
      <point x="521.5999999999999" y="690.0" type="line"/>
    </contour>
    <contour>
      <point x="589.8" y="0.0" type="line"/>
      <point x="655.0" y="0.0" type="line"/>
      <point x="1013.4" y="690.0" type="line"/>
      <point x="872.8" y="690.0" type="line"/>
      <point x="612.2" y="132.6" type="line"/>
    </contour>
    <contour>
      <point x="550.5999999999999" y="690.0" type="move" name="top"/>
    </contour>
  </outline>
</glyph>
<glyph name="Y" format="1">
  <advance width="624.5343889790738"/>
  <unicode hex="0059"/>
  <outline>
    <contour>
      <point x="86.0" y="690.0" type="line"/>
      <point x="252.2" y="265.2" type="line"/>
      <point x="322.6" y="265.2" type="line"/>
      <point x="342.79999999999995" y="377.4" type="line"/>
      <point x="231.4" y="690.0" type="line"/>
    </contour>
    <contour>
      <point x="185.0" y="0.0" type="line"/>
      <point x="319.4" y="0.0" type="line"/>
      <point x="382.6" y="295.2" type="line"/>
      <point x="247.8" y="295.2" type="line"/>
    </contour>
    <contour>
      <point x="300.6" y="265.2" type="line"/>
      <point x="365.0" y="265.2" type="line"/>
      <point x="712.4000000000001" y="690.0" type="line"/>
      <point x="552.6" y="690.0" type="line"/>
      <point x="311.6" y="377.4" type="line"/>
    </contour>
    <contour>
      <point x="389.8" y="690.0" type="move" name="top"/>
    </contour>
  </outline>
</glyph>
<glyph name="bracketright" format="1">
  <advance width="299.7756786109654"/>
  <unicode hex="005D"/>
  <outline>
    <contour>
      <point x="-164.0" y="-277.0" type="line"/>
      <point x="92.60000000000001" y="-277.0" type="line"/>
      <point x="114.6" y="-175.0" type="line"/>
      <point x="-142.0" y="-175.0" type="line"/>
    </contour>
    <contour>
      <point x="-19.400000000000002" y="-277.0" type="line"/>
      <point x="99.4" y="-277.0" type="line"/>
      <point x="330.8" y="812.0" type="line"/>
      <point x="212.0" y="812.0" type="line"/>
    </contour>
    <contour>
      <point x="46.0" y="710.0" type="line"/>
      <point x="302.6" y="710.0" type="line"/>
      <point x="324.0" y="812.0" type="line"/>
      <point x="67.4" y="812.0" type="line"/>
    </contour>
  </outline>
</glyph>
<glyph name="grave" format="1">
  <advance width="600.0"/>
  <unicode hex="0060"/>
  <outline>
    <contour>
      <point x="221.6" y="746.0" type="line"/>
      <point x="318.4" y="596.0" type="line"/>
      <point x="421.20000000000005" y="596.0" type="line"/>
      <point x="351.0" y="746.0" type="line"/>
    </contour>
    <contour>
      <point x="350.79999999999995" y="521.0" type="move" name="_top"/>
    </contour>
  </outline>
</glyph>
<glyph name="k" format="1">
  <advance width="539.8"/>
  <unicode hex="006B"/>
  <outline>
    <contour>
      <point x="13.8" y="0.0" type="line"/>
      <point x="140.6" y="0.0" type="line"/>
      <point x="296.6" y="733.8" type="line"/>
      <point x="165.8" y="715.4000000000001" type="line"/>
    </contour>
    <contour>
      <point x="121.6" y="117.0" type="line"/>
      <point x="578.2" y="521.0" type="line"/>
      <point x="410.6" y="521.0" type="line"/>
      <point x="154.60000000000002" y="273.6" type="line"/>
    </contour>
    <contour>
      <point x="226.2" y="265.8" type="line"/>
      <point x="340.20000000000005" y="0.0" type="line"/>
      <point x="475.8" y="0.0" type="line"/>
      <point x="319.2" y="343.79999999999995" type="line"/>
    </contour>
    <contour>
      <point x="246.8" y="0.0" type="move" name="bottom"/>
    </contour>
  </outline>
</glyph>
<glyph name="l" format="1">
  <advance width="274.4"/>
  <unicode hex="006C"/>
  <outline>
    <contour>
      <point x="13.8" y="0.0" type="line"/>
      <point x="140.6" y="0.0" type="line"/>
      <point x="296.2" y="733.8" type="line"/>
      <point x="165.8" y="715.4000000000001" type="line"/>
    </contour>
    <contour>
      <point x="230.2" y="720.0" type="move" name="top"/>
    </contour>
    <contour>
      <point x="367.4" y="720.0" type="move" name="caron.alt"/>
    </contour>
    <contour>
      <point x="77.2" y="0.0" type="move" name="bottom"/>
    </contour>
  </outline>
</glyph>
<glyph name="m" format="1">
  <advance width="894.7028958542453"/>
  <unicode hex="006D"/>
  <outline>
    <contour>
      <point x="14.8" y="0.0" type="line"/>
      <point x="141.6" y="0.0" type="line"/>
      <point x="193.0" y="243.0" type="line" smooth="yes"/>
      <point x="215.2" y="354.6"/>
      <point x="284.2" y="420.6"/>
      <point x="340.0" y="420.6" type="curve"/>
      <point x="377.4" y="420.6"/>
      <point x="397.8" y="398.6"/>
      <point x="397.8" y="351.4" type="curve" smooth="yes"/>
      <point x="397.8" y="339.79999999999995"/>
      <point x="395.79999999999995" y="328.2"/>
      <point x="393.0" y="314.2" type="curve" smooth="yes"/>
      <point x="326.4" y="0.0" type="line"/>
      <point x="453.20000000000005" y="0.0" type="line"/>
      <point x="504.6" y="243.0" type="line" smooth="yes"/>
      <point x="528.4" y="354.0"/>
      <point x="596.8" y="420.6"/>
      <point x="652.2" y="420.6" type="curve"/>
      <point x="689.6" y="420.6"/>
      <point x="710.0" y="398.6"/>
      <point x="710.0" y="351.4" type="curve" smooth="yes"/>
      <point x="710.0" y="339.79999999999995"/>
      <point x="708.0" y="328.2"/>
      <point x="705.6" y="314.2" type="curve" smooth="yes"/>
      <point x="639.0" y="0.0" type="line"/>
      <point x="765.8" y="0.0" type="line"/>
      <point x="832.8" y="313.4" type="line" smooth="yes"/>
      <point x="837.4" y="334.6"/>
      <point x="839.4" y="354.6"/>
      <point x="839.4" y="372.8" type="curve" smooth="yes"/>
      <point x="839.4" y="473.4"/>
      <point x="778.6" y="532.2"/>
      <point x="695.0" y="532.2" type="curve"/>
      <point x="611.8" y="532.2"/>
      <point x="546.8" y="488.0"/>
      <point x="507.8" y="414.0" type="curve"/>
      <point x="525.6" y="396.8" type="line"/>
      <point x="517.4" y="482.2"/>
      <point x="461.0" y="532.2"/>
      <point x="387.4" y="532.2" type="curve"/>
      <point x="309.6" y="532.2"/>
      <point x="250.0" y="490.79999999999995"/>
      <point x="211.0" y="420.79999999999995" type="curve"/>
      <point x="227.2" y="409.6" type="line"/>
      <point x="228.39999999999998" y="521.0" type="line"/>
      <point x="107.2" y="521.0" type="line"/>
      <point x="107.2" y="478.4" type="line" smooth="yes"/>
      <point x="107.2" y="448.2"/>
      <point x="105.4" y="426.0"/>
      <point x="99.0" y="396.8" type="curve" smooth="yes"/>
    </contour>
  </outline>
</glyph>
<glyph name="q" format="1">
  <advance width="589.8580313699185"/>
  <unicode hex="0071"/>
  <outline>
    <contour>
      <point x="28.8" y="184.2" type="curve"/>
      <point x="28.8" y="65.2"/>
      <point x="95.2" y="-11.2"/>
      <point x="188.39999999999998" y="-11.2" type="curve"/>
      <point x="262.6" y="-11.2"/>
      <point x="328.0" y="30.2"/>
      <point x="369.4" y="100.6" type="curve"/>
      <point x="353.2" y="111.4" type="line"/>
      <point x="286.6" y="-198.8" type="line"/>
      <point x="417.6" y="-180.4" type="line"/>
      <point x="566.8" y="521.0" type="line"/>
      <point x="451.8" y="521.0" type="line"/>
      <point x="429.4" y="469.6" type="line"/>
      <point x="388.6" y="278.0" type="line" smooth="yes"/>
      <point x="364.2" y="165.6"/>
      <point x="290.0" y="100.8"/>
      <point x="227.39999999999998" y="100.8" type="curve"/>
      <point x="185.39999999999998" y="100.8"/>
      <point x="158.8" y="131.2"/>
      <point x="158.8" y="199.0" type="curve"/>
      <point x="158.8" y="311.2"/>
      <point x="226.2" y="427.6"/>
      <point x="319.2" y="427.6" type="curve"/>
      <point x="362.2" y="427.6"/>
      <point x="399.79999999999995" y="407.0"/>
      <point x="432.0" y="368.0" type="curve"/>
      <point x="450.2" y="474.2" type="line"/>
      <point x="413.0" y="511.59999999999997"/>
      <point x="361.8" y="532.2"/>
      <point x="308.4" y="532.2" type="curve"/>
      <point x="161.2" y="532.2"/>
      <point x="28.8" y="370.2"/>
    </contour>
  </outline>
</glyph>
<glyph name="r" format="1">
  <advance width="373.9852035187522"/>
  <unicode hex="0072"/>
  <outline>
    <contour>
      <point x="14.8" y="0.0" type="line"/>
      <point x="141.6" y="0.0" type="line"/>
      <point x="190.60000000000002" y="232.6" type="line" smooth="yes"/>
      <point x="218.8" y="362.6"/>
      <point x="297.8" y="402.4"/>
      <point x="387.8" y="407.20000000000005" type="curve"/>
      <point x="414.0" y="532.2" type="line"/>
      <point x="332.6" y="533.4"/>
      <point x="257.8" y="493.4"/>
      <point x="209.39999999999998" y="404.6" type="curve"/>
      <point x="227.2" y="394.2" type="line"/>
      <point x="228.39999999999998" y="521.0" type="line"/>
      <point x="107.2" y="521.0" type="line"/>
      <point x="107.2" y="478.4" type="line" smooth="yes"/>
      <point x="107.2" y="448.2"/>
      <point x="105.4" y="426.0"/>
      <point x="99.0" y="396.8" type="curve" smooth="yes"/>
    </contour>
    <contour>
      <point x="256.4" y="521.0" type="move" name="top"/>
    </contour>
    <contour>
      <point x="79.6" y="0.0" type="move" name="bottom"/>
    </contour>
  </outline>
</glyph>
<glyph name="t" format="1">
  <advance width="411.27443438329976"/>
  <unicode hex="0074"/>
  <outline>
    <contour>
      <point x="45.0" y="422.8" type="line"/>
      <point x="401.6" y="422.8" type="line"/>
      <point x="422.6" y="521.0" type="line"/>
      <point x="66.0" y="521.0" type="line"/>
    </contour>
    <contour>
      <point x="79.19999999999999" y="128.8" type="curve"/>
      <point x="79.19999999999999" y="40.2"/>
      <point x="137.0" y="-11.2"/>
      <point x="229.39999999999998" y="-11.2" type="curve"/>
      <point x="261.4" y="-11.2"/>
      <point x="301.4" y="-2.4"/>
      <point x="331.4" y="10.0" type="curve"/>
      <point x="322.8" y="119.4" type="line"/>
      <point x="299.4" y="109.0"/>
      <point x="274.4" y="102.6"/>
      <point x="254.60000000000002" y="102.6" type="curve"/>
      <point x="225.39999999999998" y="102.6"/>
      <point x="207.60000000000002" y="118.6"/>
      <point x="207.60000000000002" y="150.60000000000002" type="curve"/>
      <point x="207.60000000000002" y="159.6"/>
      <point x="208.6" y="169.2"/>
      <point x="211.0" y="179.8" type="curve" smooth="yes"/>
      <point x="312.4" y="659.0" type="line"/>
      <point x="182.0" y="640.5999999999999" type="line"/>
      <point x="85.2" y="183.39999999999998" type="line" smooth="yes"/>
      <point x="81.2" y="165.0"/>
      <point x="79.19999999999999" y="146.4"/>
    </contour>
    <contour>
      <point x="504.0" y="720.0" type="move" name="caron.alt"/>
    </contour>
    <contour>
      <point x="193.2" y="0.0" type="move" name="bottom"/>
    </contour>
  </outline>
</glyph>
<glyph name="w" format="1">
  <advance width="766.8446830739431"/>
  <unicode hex="0077"/>
  <outline>
    <contour>
      <point x="60.8" y="521.0" type="line"/>
      <point x="119.19999999999999" y="0.0" type="line"/>
      <point x="195.39999999999998" y="0.0" type="line"/>
      <point x="212.39999999999998" y="87.4" type="line"/>
      <point x="190.2" y="521.0" type="line"/>
    </contour>
    <contour>
      <point x="145.4" y="0.0" type="line"/>
      <point x="218.4" y="0.0" type="line"/>
      <point x="423.4" y="376.6" type="line"/>
      <point x="452.59999999999997" y="521.0" type="line"/>
      <point x="383.4" y="521.0" type="line"/>
      <point x="161.2" y="87.4" type="line"/>
    </contour>
    <contour>
      <point x="380.6" y="376.6" type="line"/>
      <point x="424.0" y="0.0" type="line"/>
      <point x="504.2" y="0.0" type="line"/>
      <point x="521.2" y="87.4" type="line"/>
      <point x="482.20000000000005" y="521.0" type="line"/>
      <point x="409.79999999999995" y="521.0" type="line"/>
    </contour>
    <contour>
      <point x="454.20000000000005" y="0.0" type="line"/>
      <point x="527.2" y="0.0" type="line"/>
      <point x="807.4000000000001" y="521.0" type="line"/>
      <point x="671.2" y="521.0" type="line"/>
      <point x="470.0" y="87.4" type="line"/>
    </contour>
    <contour>
      <point x="431.0" y="521.0" type="move" name="top"/>
    </contour>
  </outline>
</glyph>
<glyph name="z" format="1">
  <advance width="479.5933483992353"/>
  <unicode hex="007A"/>
  <outline>
    <contour>
      <point x="-23.2" y="0.0" type="line"/>
      <point x="382.6" y="0.0" type="line"/>
      <point x="403.4" y="98.2" type="line"/>
      <point x="45.0" y="98.2" type="line"/>
      <point x="-7.6" y="73.4" type="line"/>
    </contour>
    <contour>
      <point x="-7.6" y="73.4" type="line"/>
      <point x="83.4" y="0.0" type="line"/>
      <point x="469.0" y="447.6" type="line"/>
      <point x="377.6" y="521.0" type="line"/>
    </contour>
    <contour>
      <point x="76.19999999999999" y="422.8" type="line"/>
      <point x="415.6" y="422.8" type="line"/>
      <point x="469.0" y="447.6" type="line"/>
      <point x="484.20000000000005" y="521.0" type="line"/>
      <point x="97.19999999999999" y="521.0" type="line"/>
    </contour>
    <contour>
      <point x="280.20000000000005" y="521.0" type="move" name="top"/>
    </contour>
  </outline>
</glyph>
<glyph name="braceleft" format="1">
  <advance width="348.3726469570821"/>
  <unicode hex="007B"/>
  <outline>
    <contour>
      <point x="21.6" y="-116.8" type="curve" smooth="yes"/>
      <point x="21.6" y="-190.8"/>
      <point x="84.6" y="-254.2"/>
      <point x="190.6" y="-268.4" type="curve"/>
      <point x="229.8" y="-194.60000000000002" type="line"/>
      <point x="162.2" y="-170.6"/>
      <point x="141.2" y="-151.0"/>
      <point x="141.2" y="-108.19999999999999" type="curve" smooth="yes"/>
      <point x="141.2" y="-30.0"/>
      <point x="263.0" y="65.4"/>
      <point x="263.0" y="161.2" type="curve"/>
      <point x="263.0" y="213.0"/>
      <point x="230.0" y="252.0"/>
      <point x="167.6" y="267.6" type="curve"/>
      <point x="264.8" y="289.2"/>
      <point x="322.2" y="348.79999999999995"/>
      <point x="322.2" y="430.0" type="curve"/>
      <point x="322.2" y="489.79999999999995"/>
      <point x="289.0" y="538.8"/>
      <point x="289.0" y="589.2" type="curve" smooth="yes"/>
      <point x="289.0" y="645.6"/>
      <point x="321.79999999999995" y="697.0"/>
      <point x="426.20000000000005" y="729.2" type="curve"/>
      <point x="418.20000000000005" y="803.4" type="line"/>
      <point x="255.2" y="777.2"/>
      <point x="169.8" y="689.8"/>
      <point x="169.8" y="598.4" type="curve" smooth="yes"/>
      <point x="169.8" y="530.0"/>
      <point x="210.0" y="489.0"/>
      <point x="210.0" y="425.8" type="curve" smooth="yes"/>
      <point x="210.0" y="373.6"/>
      <point x="176.2" y="327.4"/>
      <point x="61.8" y="307.4" type="curve"/>
      <point x="44.6" y="228.6" type="line"/>
      <point x="121.8" y="213.8"/>
      <point x="152.4" y="190.60000000000002"/>
      <point x="152.4" y="156.8" type="curve" smooth="yes"/>
      <point x="152.4" y="79.4"/>
      <point x="21.6" y="-15.6"/>
    </contour>
  </outline>
</glyph>
<glyph name="exclamdown" format="1">
  <advance width="326.45523952325993"/>
  <unicode hex="00A1"/>
  <outline>
    <contour>
      <point x="-0.9999999999999991" y="-185.0" type="line"/>
      <point x="138.2" y="-185.0" type="line"/>
      <point x="177.2" y="0.0" type="line"/>
      <point x="217.4" y="281.8" type="line"/>
      <point x="121.4" y="281.8" type="line"/>
      <point x="38.0" y="0.0" type="line"/>
    </contour>
    <contour>
      <point x="117.19999999999999" y="440.2" type="curve" smooth="yes"/>
      <point x="117.19999999999999" y="399.0"/>
      <point x="145.0" y="373.0"/>
      <point x="188.2" y="373.0" type="curve" smooth="yes"/>
      <point x="238.2" y="373.0"/>
      <point x="282.0" y="413.4"/>
      <point x="282.0" y="465.0" type="curve" smooth="yes"/>
      <point x="282.0" y="506.8"/>
      <point x="254.2" y="532.2"/>
      <point x="211.0" y="532.2" type="curve" smooth="yes"/>
      <point x="161.0" y="532.2"/>
      <point x="117.19999999999999" y="491.79999999999995"/>
    </contour>
  </outline>
</glyph>
<glyph name="ordfeminine" format="1">
  <advance width="481.75859711569353"/>
  <unicode hex="00AA"/>
  <outline>
    <contour>
      <point x="85.80000000000001" y="433.8" type="curve"/>
      <point x="85.80000000000001" y="340.0"/>
      <point x="136.4" y="281.4"/>
      <point x="208.0" y="281.4" type="curve"/>
      <point x="265.0" y="281.4"/>
      <point x="316.6" y="315.20000000000005"/>
      <point x="347.4" y="369.0" type="curve"/>
      <point x="332.6" y="375.8" type="line"/>
      <point x="331.79999999999995" y="290.0" type="line"/>
      <point x="427.4" y="290.0" type="line"/>
      <point x="427.4" y="323.2" type="line" smooth="yes"/>
      <point x="427.4" y="347.0"/>
      <point x="428.8" y="362.8"/>
      <point x="433.2" y="385.6" type="curve" smooth="yes"/>
      <point x="499.0" y="690.0" type="line"/>
      <point x="408.0" y="690.0" type="line"/>
      <point x="391.20000000000005" y="650.4" type="line"/>
      <point x="359.0" y="503.8" type="line" smooth="yes"/>
      <point x="340.2" y="417.0"/>
      <point x="286.2" y="370.4"/>
      <point x="240.8" y="370.4" type="curve"/>
      <point x="207.6" y="370.4"/>
      <point x="187.6" y="393.6"/>
      <point x="187.6" y="443.6" type="curve"/>
      <point x="187.6" y="528.4"/>
      <point x="236.79999999999998" y="616.8"/>
      <point x="310.4" y="616.8" type="curve"/>
      <point x="343.2" y="616.8"/>
      <point x="370.4" y="600.8"/>
      <point x="395.2" y="570.2" type="curve"/>
      <point x="409.2" y="654.6" type="line"/>
      <point x="380.0" y="682.6"/>
      <point x="341.0" y="699.4"/>
      <point x="301.8" y="699.4" type="curve"/>
      <point x="185.0" y="699.4"/>
      <point x="85.80000000000001" y="575.8"/>
    </contour>
  </outline>
</glyph>
<glyph name="guillemetleft" format="1">
  <advance width="519.6492080075448"/>
  <unicode hex="00AB"/>
  <outline>
    <contour>
      <point x="29.6" y="244.6" type="line"/>
      <point x="112.4" y="84.6" type="line"/>
      <point x="238.20000000000002" y="84.6" type="line"/>
      <point x="132.60000000000002" y="298.0" type="line"/>
      <point x="43.6" y="304.2" type="line"/>
    </contour>
    <contour>
      <point x="29.6" y="244.6" type="line"/>
      <point x="140.8" y="258.2" type="line"/>
      <point x="316.8" y="460.6" type="line"/>
      <point x="181.0" y="460.6" type="line"/>
      <point x="44.2" y="304.8" type="line"/>
    </contour>
    <contour>
      <point x="246.8" y="244.6" type="line"/>
      <point x="329.6" y="84.6" type="line"/>
      <point x="455.4" y="84.6" type="line"/>
      <point x="349.8" y="298.0" type="line"/>
      <point x="260.8" y="304.2" type="line"/>
    </contour>
    <contour>
      <point x="246.8" y="244.6" type="line"/>
      <point x="358.0" y="258.2" type="line"/>
      <point x="534.0" y="460.6" type="line"/>
      <point x="398.2" y="460.6" type="line"/>
      <point x="261.4" y="304.8" type="line"/>
    </contour>
  </outline>
</glyph>
<glyph name="macron" format="1">
  <advance width="600.1806785851504"/>
  <unicode hex="00AF"/>
  <outline>
    <contour>
      <point x="211.6" y="624.0" type="line"/>
      <point x="534.0" y="624.0" type="line"/>
      <point x="554.4" y="719.2" type="line"/>
      <point x="232.0" y="719.2" type="line"/>
    </contour>
    <contour>
      <point x="350.79999999999995" y="521.0" type="move" name="_top"/>
    </contour>
  </outline>
</glyph>
<glyph name="degree" format="1">
  <advance width="397.0005620421797"/>
  <unicode hex="00B0"/>
  <outline>
    <contour>
      <point x="86.6" y="517.6" type="curve"/>
      <point x="86.6" y="436.0"/>
      <point x="143.0" y="378.0"/>
      <point x="231.0" y="378.0" type="curve"/>
      <point x="338.2" y="378.0"/>
      <point x="419.79999999999995" y="461.8"/>
      <point x="419.79999999999995" y="562.4" type="curve"/>
      <point x="419.79999999999995" y="643.0"/>
      <point x="363.0" y="701.2"/>
      <point x="275.8" y="701.2" type="curve"/>
      <point x="168.2" y="701.2"/>
      <point x="86.6" y="618.2"/>
    </contour>
    <contour>
      <point x="175.39999999999998" y="523.5999999999999" type="curve"/>
      <point x="175.39999999999998" y="576.0"/>
      <point x="215.8" y="619.6"/>
      <point x="266.6" y="619.6" type="curve"/>
      <point x="305.79999999999995" y="619.6"/>
      <point x="331.0" y="592.4"/>
      <point x="331.0" y="554.8" type="curve"/>
      <point x="331.0" y="503.6"/>
      <point x="289.6" y="459.59999999999997"/>
      <point x="240.20000000000002" y="459.59999999999997" type="curve"/>
      <point x="200.60000000000002" y="459.59999999999997"/>
      <point x="175.39999999999998" y="487.6"/>
    </contour>
  </outline>
</glyph>
<glyph name="plusminus" format="1">
  <advance width="600.0"/>
  <unicode hex="00B1"/>
  <outline>
    <contour>
      <point x="19.200000000000003" y="59.0" type="line"/>
      <point x="486.4" y="59.0" type="line"/>
      <point x="510.0" y="172.2" type="line"/>
      <point x="42.8" y="172.2" type="line"/>
    </contour>
    <contour>
      <point x="64.8" y="274.8" type="line"/>
      <point x="532.0" y="274.8" type="line"/>
      <point x="556.0" y="388.0" type="line"/>
      <point x="88.8" y="388.0" type="line"/>
    </contour>
    <contour>
      <point x="193.60000000000002" y="59.0" type="line"/>
      <point x="312.0" y="59.0" type="line"/>
      <point x="410.0" y="521.0" type="line"/>
      <point x="292.0" y="521.0" type="line"/>
    </contour>
  </outline>
</glyph>
<glyph name="twosuperior" format="1">
  <advance width="430.547103887605"/>
  <unicode hex="00B2"/>
  <outline>
    <contour>
      <point x="67.2" y="290.0" type="line"/>
      <point x="362.4" y="290.0" type="line"/>
      <point x="380.20000000000005" y="370.4" type="line"/>
      <point x="138.2" y="370.4" type="line"/>
      <point x="80.2" y="351.20000000000005" type="line"/>
    </contour>
    <contour>
      <point x="80.2" y="351.20000000000005" type="line"/>
      <point x="125.0" y="290.0" type="line"/>
      <point x="288.6" y="424.0" type="line" smooth="yes"/>
      <point x="373.4" y="493.6"/>
      <point x="409.0" y="543.5999999999999"/>
      <point x="409.0" y="595.0" type="curve"/>
      <point x="409.0" y="656.0"/>
      <point x="364.79999999999995" y="701.2"/>
      <point x="288.6" y="701.2" type="curve"/>
      <point x="214.8" y="701.2"/>
      <point x="166.6" y="664.8"/>
      <point x="126.0" y="628.4" type="curve"/>
      <point x="170.0" y="572.6" type="line"/>
      <point x="197.60000000000002" y="597.8"/>
      <point x="231.79999999999998" y="617.4"/>
      <point x="267.4" y="617.4" type="curve"/>
      <point x="295.4" y="617.4"/>
      <point x="315.4" y="602.4"/>
      <point x="315.4" y="578.8" type="curve"/>
      <point x="315.4" y="553.6"/>
      <point x="291.2" y="524.6"/>
      <point x="233.2" y="477.6" type="curve" smooth="yes"/>
    </contour>
  </outline>
</glyph>
<glyph name="threesuperior" format="1">
  <advance width="426.23000555783733"/>
  <unicode hex="00B3"/>
  <outline>
    <contour>
      <point x="60.400000000000006" y="334.0" type="line"/>
      <point x="93.80000000000001" y="300.6"/>
      <point x="145.8" y="279.2"/>
      <point x="207.6" y="279.2" type="curve" smooth="yes"/>
      <point x="310.20000000000005" y="279.2"/>
      <point x="385.0" y="343.0"/>
      <point x="385.0" y="427.6" type="curve" smooth="yes"/>
      <point x="385.0" y="498.4"/>
      <point x="335.20000000000005" y="527.8"/>
      <point x="257.8" y="527.8" type="curve" smooth="yes"/>
      <point x="218.4" y="527.8" type="line"/>
      <point x="176.2" y="514.6" type="line"/>
      <point x="166.0" y="464.0" type="line"/>
      <point x="223.8" y="464.0" type="line" smooth="yes"/>
      <point x="267.4" y="464.0"/>
      <point x="290.2" y="451.0"/>
      <point x="290.2" y="424.2" type="curve" smooth="yes"/>
      <point x="290.2" y="383.6"/>
      <point x="253.39999999999998" y="359.6"/>
      <point x="212.4" y="359.6" type="curve" smooth="yes"/>
      <point x="173.4" y="359.6"/>
      <point x="141.0" y="371.2"/>
      <point x="119.0" y="395.8" type="curve"/>
    </contour>
    <contour>
      <point x="135.8" y="610.4" type="line"/>
      <point x="375.4" y="610.4" type="line"/>
      <point x="410.79999999999995" y="627.6" type="line"/>
      <point x="424.2" y="690.0" type="line"/>
      <point x="152.8" y="690.0" type="line"/>
    </contour>
    <contour>
      <point x="176.2" y="514.6" type="line"/>
      <point x="275.4" y="514.6" type="line"/>
      <point x="410.79999999999995" y="627.6" type="line"/>
      <point x="377.0" y="690.0" type="line"/>
    </contour>
  </outline>
</glyph>
<glyph name="acute" format="1">
  <advance width="599.8832577456735"/>
  <unicode hex="00B4"/>
  <outline>
    <contour>
      <point x="294.79999999999995" y="596.0" type="line"/>
      <point x="403.79999999999995" y="596.0" type="line"/>
      <point x="554.8" y="746.0" type="line"/>
      <point x="411.4" y="746.0" type="line"/>
    </contour>
    <contour>
      <point x="350.79999999999995" y="521.0" type="move" name="_top"/>
    </contour>
  </outline>
</glyph>
<glyph name="paragraph" format="1">
  <advance width="752.8644344349298"/>
  <unicode hex="00B6"/>
  <outline>
    <contour>
      <point x="77.4" y="382.4" type="curve" smooth="yes"/>
      <point x="77.4" y="265.79999999999995"/>
      <point x="158.39999999999998" y="184.6"/>
      <point x="283.0" y="184.6" type="curve"/>
      <point x="318.2" y="184.6" type="line"/>
      <point x="235.0" y="-207.4" type="line"/>
      <point x="353.0" y="-207.4" type="line"/>
      <point x="544.4" y="690.0" type="line"/>
      <point x="390.8" y="690.0" type="line"/>
      <point x="214.0" y="690.0"/>
      <point x="77.4" y="556.0"/>
    </contour>
    <contour>
      <point x="449.0" y="-207.4" type="line"/>
      <point x="567.4" y="-207.4" type="line"/>
      <point x="758.4" y="690.0" type="line"/>
      <point x="640.4" y="690.0" type="line"/>
    </contour>
  </outline>
</glyph>
<glyph name="ordmasculine" format="1">
  <advance width="476.52909490453123"/>
  <unicode hex="00BA"/>
  <outline>
    <contour>
      <point x="86.2" y="434.0" type="curve"/>
      <point x="86.2" y="337.20000000000005"/>
      <point x="152.39999999999998" y="277.4"/>
      <point x="242.4" y="277.4" type="curve"/>
      <point x="386.6" y="277.4"/>
      <point x="478.79999999999995" y="410.6"/>
      <point x="478.79999999999995" y="544.2" type="curve"/>
      <point x="478.79999999999995" y="642.2"/>
      <point x="412.4" y="701.2"/>
      <point x="323.8" y="701.2" type="curve"/>
      <point x="179.0" y="701.2"/>
      <point x="86.2" y="573.6"/>
    </contour>
    <contour>
      <point x="190.0" y="445.0" type="curve"/>
      <point x="190.0" y="523.8"/>
      <point x="236.6" y="617.6"/>
      <point x="310.6" y="617.6" type="curve"/>
      <point x="349.8" y="617.6"/>
      <point x="375.0" y="590.4"/>
      <point x="375.0" y="532.6" type="curve"/>
      <point x="375.0" y="453.0"/>
      <point x="329.0" y="361.0"/>
      <point x="256.0" y="361.0" type="curve"/>
      <point x="216.6" y="361.0"/>
      <point x="190.0" y="389.4"/>
    </contour>
  </outline>
</glyph>
<glyph name="questiondown" format="1">
  <advance width="507.6547511802819"/>
  <unicode hex="00BF"/>
  <outline>
    <contour>
      <point x="-17.0" y="-35.6" type="curve" smooth="yes"/>
      <point x="-17.0" y="-129.0"/>
      <point x="64.0" y="-195.0"/>
      <point x="174.8" y="-195.0" type="curve" smooth="yes"/>
      <point x="267.20000000000005" y="-195.0"/>
      <point x="348.79999999999995" y="-150.4"/>
      <point x="415.79999999999995" y="-84.0" type="curve"/>
      <point x="349.6" y="5.799999999999999" type="line"/>
      <point x="298.20000000000005" y="-44.8"/>
      <point x="255.6" y="-70.6"/>
      <point x="202.2" y="-71.2" type="curve" smooth="yes"/>
      <point x="151.6" y="-71.2"/>
      <point x="125.19999999999999" y="-42.4"/>
      <point x="125.80000000000001" y="-8.200000000000001" type="curve" smooth="yes"/>
      <point x="126.4" y="32.2"/>
      <point x="148.6" y="57.6"/>
      <point x="223.8" y="108.0" type="curve" smooth="yes"/>
      <point x="266.20000000000005" y="137.2"/>
      <point x="296.79999999999995" y="172.0"/>
      <point x="301.0" y="225.8" type="curve" smooth="yes"/>
      <point x="306.4" y="292.20000000000005" type="line"/>
      <point x="212.39999999999998" y="292.20000000000005" type="line"/>
      <point x="201.6" y="252.2" type="line" smooth="yes"/>
      <point x="194.0" y="224.8"/>
      <point x="176.39999999999998" y="199.6"/>
      <point x="148.2" y="181.4" type="curve" smooth="yes"/>
      <point x="34.400000000000006" y="104.2"/>
      <point x="-17.0" y="50.4"/>
    </contour>
    <contour>
      <point x="205.0" y="440.2" type="curve" smooth="yes"/>
      <point x="205.0" y="399.0"/>
      <point x="232.8" y="373.0"/>
      <point x="276.0" y="373.0" type="curve" smooth="yes"/>
      <point x="326.0" y="373.0"/>
      <point x="369.8" y="413.4"/>
      <point x="369.8" y="465.0" type="curve" smooth="yes"/>
      <point x="369.8" y="506.8"/>
      <point x="342.0" y="532.2"/>
      <point x="298.8" y="532.2" type="curve" smooth="yes"/>
      <point x="248.8" y="532.2"/>
      <point x="205.0" y="491.79999999999995"/>
    </contour>
  </outline>
</glyph>
<glyph name="germandbls" format="1">
  <advance width="592.9408488048609"/>
  <unicode hex="00DF"/>
  <outline>
    <contour>
      <point x="13.8" y="0.0" type="line"/>
      <point x="140.6" y="0.0" type="line"/>
      <point x="248.0" y="504.4" type="line" smooth="yes"/>
      <point x="265.4" y="587.6"/>
      <point x="307.79999999999995" y="620.4"/>
      <point x="355.4" y="620.4" type="curve" smooth="yes"/>
      <point x="395.79999999999995" y="620.4"/>
      <point x="422.6" y="600.8"/>
      <point x="422.6" y="557.0" type="curve"/>
      <point x="422.6" y="501.8"/>
      <point x="360.8" y="449.0"/>
      <point x="280.2" y="396.8" type="curve"/>
      <point x="260.0" y="303.20000000000005" type="line"/>
      <point x="353.6" y="246.4" type="line" smooth="yes"/>
      <point x="390.0" y="224.4"/>
      <point x="408.6" y="197.2"/>
      <point x="408.6" y="167.4" type="curve" smooth="yes"/>
      <point x="408.6" y="125.80000000000001"/>
      <point x="372.79999999999995" y="92.4"/>
      <point x="325.6" y="92.4" type="curve" smooth="yes"/>
      <point x="290.79999999999995" y="92.4"/>
      <point x="261.2" y="101.4"/>
      <point x="237.6" y="118.19999999999999" type="curve"/>
      <point x="184.2" y="32.2" type="line"/>
      <point x="209.2" y="13.0"/>
      <point x="260.0" y="-11.2"/>
      <point x="333.0" y="-11.2" type="curve"/>
      <point x="448.2" y="-11.2"/>
      <point x="534.0" y="60.8"/>
      <point x="534.0" y="171.0" type="curve" smooth="yes"/>
      <point x="534.0" y="239.2"/>
      <point x="494.0" y="288.2"/>
      <point x="438.8" y="319.6" type="curve" smooth="yes"/>
      <point x="380.2" y="353.2" type="line"/>
      <point x="465.8" y="412.79999999999995"/>
      <point x="543.2" y="477.0"/>
      <point x="543.2" y="575.0" type="curve"/>
      <point x="543.2" y="669.2"/>
      <point x="476.2" y="731.2"/>
      <point x="365.6" y="731.2" type="curve" smooth="yes"/>
      <point x="228.20000000000002" y="731.2"/>
      <point x="154.8" y="662.2"/>
      <point x="122.80000000000001" y="510.8" type="curve" smooth="yes"/>
    </contour>
  </outline>
</glyph>
<glyph name="ae" format="1">
  <advance width="839.0186198694364"/>
  <unicode hex="00E6"/>
  <outline>
    <contour>
      <point x="8.0" y="122.8" type="curve"/>
      <point x="8.0" y="49.4"/>
      <point x="62.599999999999994" y="-11.2"/>
      <point x="153.0" y="-11.2" type="curve"/>
      <point x="240.79999999999998" y="-11.2"/>
      <point x="309.2" y="23.200000000000003"/>
      <point x="378.4" y="92.19999999999999" type="curve"/>
      <point x="348.4" y="157.2" type="line"/>
      <point x="299.0" y="115.80000000000001"/>
      <point x="260.2" y="89.2"/>
      <point x="203.39999999999998" y="89.2" type="curve"/>
      <point x="154.6" y="89.2"/>
      <point x="135.8" y="114.4"/>
      <point x="135.8" y="141.2" type="curve"/>
      <point x="135.8" y="205.39999999999998"/>
      <point x="232.6" y="231.0"/>
      <point x="314.8" y="231.0" type="curve" smooth="yes"/>
      <point x="332.20000000000005" y="231.0"/>
      <point x="348.4" y="230.6"/>
      <point x="363.6" y="229.60000000000002" type="curve"/>
      <point x="379.2" y="307.2" type="line"/>
      <point x="356.4" y="308.6"/>
      <point x="316.8" y="309.6"/>
      <point x="284.2" y="309.6" type="curve" smooth="yes"/>
      <point x="127.8" y="309.6"/>
      <point x="8.0" y="249.20000000000002"/>
    </contour>
    <contour>
      <point x="103.0" y="487.40000000000003" type="curve"/>
      <point x="118.8" y="385.6" type="line"/>
      <point x="163.8" y="406.6"/>
      <point x="215.0" y="419.8"/>
      <point x="268.0" y="419.8" type="curve" smooth="yes"/>
      <point x="327.6" y="419.8"/>
      <point x="358.6" y="398.20000000000005"/>
      <point x="358.6" y="350.8" type="curve" smooth="yes"/>
      <point x="358.6" y="340.4"/>
      <point x="357.6" y="332.0"/>
      <point x="347.6" y="283.2" type="curve"/>
      <point x="465.4" y="278.8" type="line"/>
      <point x="477.2" y="340.2"/>
      <point x="481.4" y="365.4"/>
      <point x="481.4" y="384.8" type="curve" smooth="yes"/>
      <point x="481.4" y="481.8"/>
      <point x="409.4" y="532.2"/>
      <point x="309.0" y="532.2" type="curve" smooth="yes"/>
      <point x="227.6" y="532.2"/>
      <point x="158.60000000000002" y="511.59999999999997"/>
    </contour>
    <contour>
      <point x="335.2" y="177.60000000000002" type="curve" smooth="yes"/>
      <point x="335.2" y="62.6"/>
      <point x="415.0" y="-11.2"/>
      <point x="537.4" y="-11.2" type="curve" smooth="yes"/>
      <point x="619.4" y="-11.2"/>
      <point x="682.0" y="16.0"/>
      <point x="753.0" y="68.6" type="curve"/>
      <point x="699.0" y="149.6" type="line"/>
      <point x="657.4000000000001" y="115.2"/>
      <point x="615.8" y="94.6"/>
      <point x="564.2" y="94.6" type="curve" smooth="yes"/>
      <point x="500.6" y="94.6"/>
      <point x="465.2" y="130.8"/>
      <point x="465.2" y="197.4" type="curve" smooth="yes"/>
      <point x="465.2" y="355.2"/>
      <point x="548.0" y="428.0"/>
      <point x="621.4" y="428.0" type="curve"/>
      <point x="666.8" y="428.0"/>
      <point x="688.5999999999999" y="407.6"/>
      <point x="688.5999999999999" y="378.0" type="curve" smooth="yes"/>
      <point x="688.5999999999999" y="319.6"/>
      <point x="605.0" y="300.8"/>
      <point x="473.79999999999995" y="300.8" type="curve" smooth="yes"/>
      <point x="464.8" y="300.8"/>
      <point x="453.59999999999997" y="301.6"/>
      <point x="442.20000000000005" y="303.2" type="curve"/>
      <point x="424.4" y="223.0" type="line"/>
      <point x="446.40000000000003" y="221.0"/>
      <point x="464.40000000000003" y="219.60000000000002"/>
      <point x="484.0" y="219.60000000000002" type="curve" smooth="yes"/>
      <point x="675.8" y="219.60000000000002"/>
      <point x="810.5999999999999" y="264.79999999999995"/>
      <point x="810.5999999999999" y="390.8" type="curve"/>
      <point x="810.5999999999999" y="469.8"/>
      <point x="747.8" y="532.2"/>
      <point x="646.0" y="532.2" type="curve"/>
      <point x="461.0" y="532.2"/>
      <point x="335.2" y="365.4"/>
    </contour>
    <contour>
      <point x="471.8" y="521.0" type="move" name="top"/>
    </contour>
  </outline>
</glyph>
<glyph name="eth" format="1">
  <advance width="553.4265856335124"/>
  <unicode hex="00F0"/>
  <outline>
    <contour>
      <point x="29.2" y="196.0" type="curve"/>
      <point x="29.2" y="66.4"/>
      <point x="113.0" y="-11.2"/>
      <point x="225.8" y="-11.2" type="curve"/>
      <point x="401.2" y="-11.2"/>
      <point x="512.2" y="144.0"/>
      <point x="512.2" y="343.2" type="curve" smooth="yes"/>
      <point x="512.2" y="487.20000000000005"/>
      <point x="434.4" y="634.8"/>
      <point x="340.6" y="720.0" type="curve"/>
      <point x="202.2" y="720.0" type="line"/>
      <point x="319.6" y="615.0"/>
      <point x="402.6" y="494.2"/>
      <point x="402.6" y="341.0" type="curve" smooth="yes"/>
      <point x="402.6" y="189.8"/>
      <point x="328.4" y="93.6"/>
      <point x="239.0" y="93.6" type="curve"/>
      <point x="184.8" y="93.6"/>
      <point x="150.39999999999998" y="131.2"/>
      <point x="150.39999999999998" y="201.4" type="curve"/>
      <point x="150.39999999999998" y="292.0"/>
      <point x="204.6" y="379.4"/>
      <point x="294.6" y="379.4" type="curve" smooth="yes"/>
      <point x="343.79999999999995" y="379.4"/>
      <point x="383.0" y="359.2"/>
      <point x="410.4" y="316.0" type="curve"/>
      <point x="436.6" y="380.0" type="line"/>
      <point x="415.6" y="428.4"/>
      <point x="363.6" y="479.6"/>
      <point x="280.0" y="479.6" type="curve"/>
      <point x="135.2" y="479.6"/>
      <point x="29.2" y="341.2"/>
    </contour>
    <contour>
      <point x="194.60000000000002" y="600.6" type="line"/>
      <point x="215.4" y="521.6" type="line"/>
      <point x="530.0" y="652.2" type="line"/>
      <point x="509.6" y="730.8" type="line"/>
    </contour>
  </outline>
</glyph>
<glyph name="eogonek" format="1">
  <advance width="531.2204298428773"/>
  <unicode hex="0119"/>
  <outline>
    <contour>
      <point x="27.4" y="177.60000000000002" type="curve" smooth="yes"/>
      <point x="27.4" y="62.6"/>
      <point x="106.8" y="-11.2"/>
      <point x="229.60000000000002" y="-11.2" type="curve" smooth="yes"/>
      <point x="311.6" y="-11.2"/>
      <point x="374.2" y="16.0"/>
      <point x="445.2" y="68.6" type="curve"/>
      <point x="390.20000000000005" y="154.0" type="line"/>
      <point x="348.6" y="119.6"/>
      <point x="296.0" y="96.8"/>
      <point x="245.0" y="96.8" type="curve" smooth="yes"/>
      <point x="189.0" y="96.8"/>
      <point x="157.0" y="130.8"/>
      <point x="157.0" y="197.4" type="curve" smooth="yes"/>
      <point x="157.0" y="304.8"/>
      <point x="223.8" y="428.0"/>
      <point x="322.0" y="428.0" type="curve" smooth="yes"/>
      <point x="357.8" y="428.0"/>
      <point x="380.4" y="408.8"/>
      <point x="380.4" y="378.0" type="curve" smooth="yes"/>
      <point x="380.4" y="338.4"/>
      <point x="343.20000000000005" y="302.4"/>
      <point x="171.60000000000002" y="301.8" type="curve" smooth="yes"/>
      <point x="159.0" y="301.8"/>
      <point x="144.4" y="302.6"/>
      <point x="129.0" y="303.8" type="curve"/>
      <point x="116.2" y="223.0" type="line"/>
      <point x="140.2" y="221.4"/>
      <point x="160.2" y="220.0"/>
      <point x="181.4" y="220.0" type="curve" smooth="yes"/>
      <point x="364.0" y="220.0"/>
      <point x="506.0" y="259.6"/>
      <point x="506.0" y="391.20000000000005" type="curve" smooth="yes"/>
      <point x="506.0" y="471.0"/>
      <point x="437.6" y="532.2"/>
      <point x="338.6" y="532.2" type="curve" smooth="yes"/>
      <point x="152.0" y="532.2"/>
      <point x="27.4" y="365.4"/>
    </contour>
    <contour>
      <point x="196.6" y="-120.19999999999999" type="curve" smooth="yes"/>
      <point x="196.6" y="-161.8"/>
      <point x="227.2" y="-196.2"/>
      <point x="281.2" y="-196.2" type="curve" smooth="yes"/>
      <point x="317.2" y="-196.2"/>
      <point x="349.2" y="-185.8"/>
      <point x="373.4" y="-170.8" type="curve"/>
      <point x="354.2" y="-108.2" type="line"/>
      <point x="336.6" y="-118.19999999999999"/>
      <point x="320.4" y="-125.4"/>
      <point x="303.0" y="-125.4" type="curve" smooth="yes"/>
      <point x="285.4" y="-125.4"/>
      <point x="275.4" y="-115.39999999999999"/>
      <point x="275.4" y="-99.2" type="curve" smooth="yes"/>
      <point x="275.4" y="-60.0"/>
      <point x="343.20000000000005" y="-40.0"/>
      <point x="445.2" y="68.6" type="curve"/>
      <point x="291.20000000000005" y="0.0" type="line"/>
      <point x="240.0" y="-24.200000000000003"/>
      <point x="196.6" y="-75.6"/>
    </contour>
  </outline>
</glyph>
<glyph name="hbar" format="1">
  <advance width="612.0"/>
  <unicode hex="0127"/>
  <outline>
    <contour>
      <point x="77.4" y="573.0" type="line"/>
      <point x="389.8" y="573.0" type="line"/>
      <point x="408.2" y="659.6" type="line"/>
      <point x="95.8" y="659.6" type="line"/>
    </contour>
    <contour>
      <point x="18.8" y="0.0" type="line"/>
      <point x="145.6" y="0.0" type="line"/>
      <point x="197.0" y="243.0" type="line" smooth="yes"/>
      <point x="220.8" y="355.8"/>
      <point x="298.8" y="420.6"/>
      <point x="358.2" y="420.6" type="curve"/>
      <point x="400.79999999999995" y="420.6"/>
      <point x="426.8" y="398.6"/>
      <point x="426.8" y="351.4" type="curve" smooth="yes"/>
      <point x="426.8" y="339.79999999999995"/>
      <point x="424.79999999999995" y="328.2"/>
      <point x="422.0" y="314.2" type="curve" smooth="yes"/>
      <point x="355.4" y="0.0" type="line"/>
      <point x="482.2" y="0.0" type="line"/>
      <point x="549.2" y="313.4" type="line" smooth="yes"/>
      <point x="553.8" y="334.6"/>
      <point x="555.8" y="354.6"/>
      <point x="555.8" y="372.8" type="curve" smooth="yes"/>
      <point x="555.8" y="473.4"/>
      <point x="490.6" y="532.2"/>
      <point x="405.20000000000005" y="532.2" type="curve"/>
      <point x="323.8" y="532.2"/>
      <point x="258.0" y="490.79999999999995"/>
      <point x="216.60000000000002" y="420.79999999999995" type="curve"/>
      <point x="232.39999999999998" y="409.6" type="line"/>
      <point x="301.2" y="733.8" type="line"/>
      <point x="170.8" y="715.4000000000001" type="line"/>
    </contour>
  </outline>
</glyph>
<glyph name="Lslash" format="1">
  <advance width="559.4"/>
  <unicode hex="0141"/>
  <outline>
    <contour>
      <point x="9.6" y="186.0" type="line"/>
      <point x="373.0" y="372.0" type="line"/>
      <point x="400.79999999999995" y="498.4" type="line"/>
      <point x="38.0" y="312.4" type="line"/>
    </contour>
    <contour>
      <point x="26.2" y="0.0" type="line"/>
      <point x="161.0" y="0.0" type="line"/>
      <point x="308.0" y="690.0" type="line"/>
      <point x="173.2" y="690.0" type="line"/>
    </contour>
    <contour>
      <point x="89.0" y="0.0" type="line"/>
      <point x="473.4" y="0.0" type="line"/>
      <point x="498.6" y="118.0" type="line"/>
      <point x="114.19999999999999" y="118.0" type="line"/>
    </contour>
  </outline>
</glyph>
<glyph name="Eng" format="1">
  <advance width="723.8015834686108"/>
  <unicode hex="014A"/>
  <outline>
    <contour>
      <point x="21.2" y="0.0" type="line"/>
      <point x="144.0" y="0.0" type="line"/>
      <point x="291.0" y="690.0" type="line"/>
      <point x="168.2" y="690.0" type="line"/>
    </contour>
    <contour>
      <point x="214.2" y="690.0" type="line"/>
      <point x="460.0" y="0.0" type="line"/>
      <point x="580.8" y="0.0" type="line"/>
      <point x="335.8" y="690.0" type="line"/>
    </contour>
    <contour>
      <point x="286.6" y="-177.39999999999998" type="line"/>
      <point x="310.0" y="-187.8"/>
      <point x="341.2" y="-196.2"/>
      <point x="378.4" y="-196.2" type="curve"/>
      <point x="482.2" y="-196.2"/>
      <point x="552.4" y="-140.4"/>
      <point x="579.6" y="-12.8" type="curve" smooth="yes"/>
      <point x="729.4" y="690.0" type="line"/>
      <point x="606.6" y="690.0" type="line"/>
      <point x="457.20000000000005" y="-12.0" type="line" smooth="yes"/>
      <point x="444.40000000000003" y="-71.8"/>
      <point x="410.6" y="-91.80000000000001"/>
      <point x="370.20000000000005" y="-91.80000000000001" type="curve"/>
      <point x="351.79999999999995" y="-91.80000000000001"/>
      <point x="333.6" y="-87.4"/>
      <point x="318.0" y="-79.4" type="curve"/>
    </contour>
  </outline>
</glyph>
<glyph name="Schwa" format="1">
  <advance width="724.4681898644692"/>
  <unicode hex="018F"/>
  <outline>
    <contour>
      <point x="52.2" y="254.60000000000002" type="curve" smooth="yes"/>
      <point x="52.2" y="102.0"/>
      <point x="145.4" y="-11.6"/>
      <point x="317.2" y="-11.6" type="curve"/>
      <point x="560.6" y="-11.6"/>
      <point x="692.0" y="193.0"/>
      <point x="692.0" y="414.8" type="curve" smooth="yes"/>
      <point x="692.0" y="600.0"/>
      <point x="580.5999999999999" y="701.6"/>
      <point x="413.79999999999995" y="701.6" type="curve" smooth="yes"/>
      <point x="323.0" y="701.6"/>
      <point x="237.0" y="670.8"/>
      <point x="168.8" y="634.6" type="curve"/>
      <point x="193.60000000000002" y="520.4" type="line"/>
      <point x="245.4" y="550.8"/>
      <point x="321.8" y="574.8"/>
      <point x="393.2" y="574.8" type="curve" smooth="yes"/>
      <point x="494.6" y="574.8"/>
      <point x="555.8" y="522.0"/>
      <point x="555.8" y="414.6" type="curve" smooth="yes"/>
      <point x="555.8" y="244.4"/>
      <point x="483.2" y="109.39999999999999"/>
      <point x="328.2" y="109.39999999999999" type="curve"/>
      <point x="242.8" y="109.39999999999999"/>
      <point x="188.2" y="162.4"/>
      <point x="188.2" y="254.79999999999998" type="curve" smooth="yes"/>
      <point x="188.2" y="288.6"/>
      <point x="194.8" y="316.4"/>
      <point x="201.2" y="342.20000000000005" type="curve"/>
      <point x="157.8" y="285.2" type="line"/>
      <point x="574.2" y="285.2" type="line"/>
      <point x="596.0" y="389.6" type="line"/>
      <point x="77.2" y="389.6" type="line"/>
      <point x="64.6" y="361.6"/>
      <point x="52.2" y="321.4"/>
    </contour>
  </outline>
</glyph>
<glyph name="Nhookleft" format="1">
  <advance width="723.8015834686108"/>
  <unicode hex="019D"/>
  <outline>
    <contour>
      <point x="-151.8" y="-177.39999999999998" type="line"/>
      <point x="-128.39999999999998" y="-187.8"/>
      <point x="-97.19999999999999" y="-196.2"/>
      <point x="-60.0" y="-196.2" type="curve"/>
      <point x="43.8" y="-196.2"/>
      <point x="114.6" y="-140.4"/>
      <point x="141.2" y="-12.8" type="curve" smooth="yes"/>
      <point x="291.0" y="690.0" type="line"/>
      <point x="168.2" y="690.0" type="line"/>
      <point x="18.8" y="-12.0" type="line" smooth="yes"/>
      <point x="6.6" y="-71.8"/>
      <point x="-27.8" y="-91.80000000000001"/>
      <point x="-68.2" y="-91.80000000000001" type="curve"/>
      <point x="-86.6" y="-91.80000000000001"/>
      <point x="-104.8" y="-87.4"/>
      <point x="-120.39999999999999" y="-79.4" type="curve"/>
    </contour>
    <contour>
      <point x="214.2" y="690.0" type="line"/>
      <point x="423.0" y="0.0" type="line"/>
      <point x="544.2" y="0.0" type="line"/>
      <point x="335.8" y="690.0" type="line"/>
    </contour>
    <contour>
      <point x="459.6" y="0.0" type="line"/>
      <point x="582.4" y="0.0" type="line"/>
      <point x="729.4" y="690.0" type="line"/>
      <point x="606.6" y="690.0" type="line"/>
    </contour>
  </outline>
</glyph>
<glyph name="Oogonek" format="1">
  <advance width="724.9093845875807"/>
  <unicode hex="01EA"/>
  <outline>
    <contour>
      <point x="438.2" y="-170.8" type="curve"/>
      <point x="419.0" y="-108.2" type="line"/>
      <point x="401.4" y="-118.19999999999999"/>
      <point x="385.2" y="-125.4"/>
      <point x="367.79999999999995" y="-125.4" type="curve" smooth="yes"/>
      <point x="350.2" y="-125.4"/>
      <point x="340.2" y="-115.39999999999999"/>
      <point x="340.2" y="-99.2" type="curve" smooth="yes"/>
      <point x="340.2" y="-61.800000000000004"/>
      <point x="396.0" y="-31.0"/>
      <point x="507.2" y="55.2" type="curve" smooth="yes"/>
      <point x="621.5999999999999" y="143.2"/>
      <point x="699.5999999999999" y="282.2"/>
      <point x="700.2" y="444.6" type="curve"/>
      <point x="699.5999999999999" y="607.4"/>
      <point x="597.2" y="701.2"/>
      <point x="452.0" y="701.2" type="curve"/>
      <point x="236.2" y="701.2"/>
      <point x="51.599999999999994" y="493.0"/>
      <point x="51.599999999999994" y="245.4" type="curve"/>
      <point x="51.599999999999994" y="82.6"/>
      <point x="154.0" y="-11.2"/>
      <point x="300.2" y="-11.2" type="curve"/>
      <point x="313.4" y="-11.2"/>
      <point x="326.6" y="-10.2"/>
      <point x="339.4" y="-8.8" type="curve"/>
      <point x="296.2" y="-35.2"/>
      <point x="261.4" y="-80.6"/>
      <point x="261.4" y="-120.19999999999999" type="curve" smooth="yes"/>
      <point x="261.4" y="-161.8"/>
      <point x="292.0" y="-196.2"/>
      <point x="346.0" y="-196.2" type="curve" smooth="yes"/>
      <point x="382.0" y="-196.2"/>
      <point x="414.0" y="-185.8"/>
    </contour>
    <contour>
      <point x="191.0" y="262.8" type="curve"/>
      <point x="191.0" y="440.0"/>
      <point x="303.79999999999995" y="580.2"/>
      <point x="427.0" y="580.2" type="curve"/>
      <point x="507.6" y="580.2"/>
      <point x="560.8" y="529.0"/>
      <point x="561.2" y="427.2" type="curve"/>
      <point x="560.8" y="250.0"/>
      <point x="447.4" y="109.8"/>
      <point x="324.8" y="109.8" type="curve"/>
      <point x="243.60000000000002" y="109.8"/>
      <point x="191.0" y="161.0"/>
    </contour>
  </outline>
</glyph>
<glyph name="oogonek" format="1">
  <advance width="560.8"/>
  <unicode hex="01EB"/>
  <outline>
    <contour>
      <point x="339.2" y="-170.8" type="curve"/>
      <point x="320.0" y="-108.2" type="line"/>
      <point x="302.4" y="-118.19999999999999"/>
      <point x="286.2" y="-125.4"/>
      <point x="268.8" y="-125.4" type="curve" smooth="yes"/>
      <point x="251.2" y="-125.4"/>
      <point x="241.2" y="-115.39999999999999"/>
      <point x="241.2" y="-99.2" type="curve" smooth="yes"/>
      <point x="241.2" y="-60.8"/>
      <point x="301.2" y="-37.0"/>
      <point x="406.0" y="62.400000000000006" type="curve" smooth="yes"/>
      <point x="479.2" y="131.6"/>
      <point x="523.2" y="233.2"/>
      <point x="523.2" y="338.0" type="curve"/>
      <point x="523.2" y="455.0"/>
      <point x="444.4" y="532.2"/>
      <point x="332.6" y="532.2" type="curve"/>
      <point x="151.2" y="532.2"/>
      <point x="28.4" y="365.8"/>
      <point x="28.4" y="182.4" type="curve"/>
      <point x="28.4" y="65.4"/>
      <point x="107.19999999999999" y="-11.2"/>
      <point x="219.0" y="-11.2" type="curve"/>
      <point x="225.8" y="-11.2"/>
      <point x="232.0" y="-10.799999999999999"/>
      <point x="238.4" y="-10.399999999999999" type="curve"/>
      <point x="196.2" y="-36.8"/>
      <point x="162.4" y="-81.0"/>
      <point x="162.4" y="-120.19999999999999" type="curve" smooth="yes"/>
      <point x="162.4" y="-161.8"/>
      <point x="193.0" y="-196.2"/>
      <point x="247.0" y="-196.2" type="curve" smooth="yes"/>
      <point x="283.0" y="-196.2"/>
      <point x="315.0" y="-185.8"/>
    </contour>
    <contour>
      <point x="158.0" y="197.4" type="curve"/>
      <point x="158.0" y="304.8"/>
      <point x="222.6" y="428.0"/>
      <point x="314.0" y="428.0" type="curve"/>
      <point x="365.2" y="428.0"/>
      <point x="393.6" y="392.0"/>
      <point x="393.6" y="322.0" type="curve"/>
      <point x="393.6" y="214.6"/>
      <point x="329.0" y="93.0"/>
      <point x="237.2" y="93.0" type="curve"/>
      <point x="186.0" y="93.0"/>
      <point x="158.0" y="128.4"/>
    </contour>
  </outline>
</glyph>
<glyph name="nhookleft" format="1">
  <advance width="607.1028958542452"/>
  <unicode hex="0272"/>
  <outline>
    <contour>
      <point x="-154.2" y="-177.39999999999998" type="line"/>
      <point x="-130.8" y="-187.8"/>
      <point x="-99.6" y="-196.2"/>
      <point x="-62.4" y="-196.2" type="curve" smooth="yes"/>
      <point x="41.4" y="-196.2"/>
      <point x="111.6" y="-140.4"/>
      <point x="138.8" y="-12.8" type="curve" smooth="yes"/>
      <point x="193.0" y="243.0" type="line" smooth="yes"/>
      <point x="216.79999999999998" y="355.8"/>
      <point x="294.8" y="420.6"/>
      <point x="354.2" y="420.6" type="curve"/>
      <point x="396.79999999999995" y="420.6"/>
      <point x="422.8" y="398.6"/>
      <point x="422.8" y="351.4" type="curve" smooth="yes"/>
      <point x="422.8" y="339.79999999999995"/>
      <point x="420.79999999999995" y="328.2"/>
      <point x="418.0" y="314.2" type="curve" smooth="yes"/>
      <point x="351.4" y="0.0" type="line"/>
      <point x="478.20000000000005" y="0.0" type="line"/>
      <point x="545.2" y="313.4" type="line" smooth="yes"/>
      <point x="549.8" y="334.6"/>
      <point x="551.8" y="354.6"/>
      <point x="551.8" y="372.8" type="curve" smooth="yes"/>
      <point x="551.8" y="473.4"/>
      <point x="486.6" y="532.2"/>
      <point x="401.2" y="532.2" type="curve"/>
      <point x="319.8" y="532.2"/>
      <point x="252.0" y="490.79999999999995"/>
      <point x="211.0" y="420.79999999999995" type="curve"/>
      <point x="227.2" y="409.6" type="line"/>
      <point x="228.39999999999998" y="521.0" type="line"/>
      <point x="107.2" y="521.0" type="line"/>
      <point x="107.2" y="478.4" type="line" smooth="yes"/>
      <point x="107.2" y="448.2"/>
      <point x="105.4" y="426.0"/>
      <point x="99.0" y="396.8" type="curve"/>
      <point x="12.4" y="-12.0" type="line" smooth="yes"/>
      <point x="4.440892098500626e-16" y="-71.8"/>
      <point x="-30.200000000000003" y="-91.80000000000001"/>
      <point x="-70.6" y="-91.80000000000001" type="curve" smooth="yes"/>
      <point x="-89.0" y="-91.80000000000001"/>
      <point x="-107.2" y="-87.4"/>
      <point x="-122.8" y="-79.4" type="curve"/>
    </contour>
  </outline>
</glyph>
<glyph name="circumflex" format="1">
  <advance width="599.8366514458747"/>
  <unicode hex="02C6"/>
  <outline>
    <contour>
      <point x="205.8" y="596.0" type="line"/>
      <point x="310.4" y="596.0" type="line"/>
      <point x="457.0" y="746.0" type="line"/>
      <point x="336.20000000000005" y="746.0" type="line"/>
    </contour>
    <contour>
      <point x="339.4" y="746.0" type="line"/>
      <point x="427.2" y="596.0" type="line"/>
      <point x="526.8" y="596.0" type="line"/>
      <point x="457.8" y="746.0" type="line"/>
    </contour>
    <contour>
      <point x="350.79999999999995" y="521.0" type="move" name="_top"/>
    </contour>
  </outline>
</glyph>
<glyph name="caron" format="1">
  <advance width="599.8832577456735"/>
  <unicode hex="02C7"/>
  <outline>
    <contour>
      <point x="238.2" y="746.0" type="line"/>
      <point x="307.2" y="596.0" type="line"/>
      <point x="425.6" y="596.0" type="line"/>
      <point x="337.79999999999995" y="746.0" type="line"/>
    </contour>
    <contour>
      <point x="308.0" y="596.0" type="line"/>
      <point x="428.8" y="596.0" type="line"/>
      <point x="559.2" y="746.0" type="line"/>
      <point x="454.59999999999997" y="746.0" type="line"/>
    </contour>
    <contour>
      <point x="350.79999999999995" y="521.0" type="move" name="_top"/>
    </contour>
  </outline>
</glyph>
<glyph name="macronmod" format="1">
  <advance width="0.18067858515039462"/>
  <unicode hex="02C9"/>
  <outline>
    <component base="macron" xOffset="-300.0"/>
    <contour>
      <point x="51.2" y="521.0" type="move" name="_top"/>
    </contour>
  </outline>
</glyph>
<glyph name="tilde" format="1">
  <advance width="600.0436197403616"/>
  <unicode hex="02DC"/>
  <outline>
    <contour>
      <point x="217.6" y="606.2" type="curve"/>
      <point x="281.2" y="606.2" type="line"/>
      <point x="290.8" y="639.8"/>
      <point x="305.6" y="648.8"/>
      <point x="320.4" y="648.8" type="curve" smooth="yes"/>
      <point x="351.20000000000005" y="648.8"/>
      <point x="375.4" y="600.8"/>
      <point x="433.6" y="600.8" type="curve" smooth="yes"/>
      <point x="496.4" y="600.8"/>
      <point x="531.0" y="649.4"/>
      <point x="546.0" y="733.6" type="curve"/>
      <point x="482.0" y="733.6" type="line"/>
      <point x="472.4" y="700.0"/>
      <point x="458.0" y="691.0"/>
      <point x="443.2" y="691.0" type="curve" smooth="yes"/>
      <point x="412.0" y="691.0"/>
      <point x="387.79999999999995" y="739.0"/>
      <point x="330.0" y="739.0" type="curve" smooth="yes"/>
      <point x="266.8" y="739.0"/>
      <point x="232.60000000000002" y="690.4"/>
    </contour>
    <contour>
      <point x="350.79999999999995" y="521.0" type="move" name="_top"/>
    </contour>
  </outline>
</glyph>
<glyph name="endash" format="1">
  <advance width="608.2454297138023"/>
  <unicode hex="2013"/>
  <outline>
    <contour>
      <point x="39.400000000000006" y="227.60000000000002" type="line"/>
      <point x="545.8" y="227.60000000000002" type="line"/>
      <point x="567.2" y="329.6" type="line"/>
      <point x="60.8" y="329.6" type="line"/>
    </contour>
  </outline>
</glyph>
<glyph name="emdash" format="1">
  <advance width="904.8454297138023"/>
  <unicode hex="2014"/>
  <outline>
    <contour>
      <point x="39.400000000000006" y="227.60000000000002" type="line"/>
      <point x="842.4" y="227.60000000000002" type="line"/>
      <point x="863.8" y="329.6" type="line"/>
      <point x="60.8" y="329.6" type="line"/>
    </contour>
  </outline>
</glyph>
<glyph name="quoteleft" format="1">
  <advance width="248.41760461607677"/>
  <unicode hex="2018"/>
  <outline>
    <contour>
      <point x="287.2" y="720.0" type="line"/>
      <point x="211.6" y="720.0" type="line"/>
      <point x="127.80000000000001" y="584.4000000000001" type="line" smooth="yes"/>
      <point x="101.4" y="542.0"/>
      <point x="83.80000000000001" y="509.4"/>
      <point x="83.80000000000001" y="472.2" type="curve"/>
      <point x="83.80000000000001" y="426.4"/>
      <point x="114.4" y="399.79999999999995"/>
      <point x="157.60000000000002" y="399.79999999999995" type="curve"/>
      <point x="206.79999999999998" y="399.79999999999995"/>
      <point x="249.0" y="437.6"/>
      <point x="249.0" y="489.59999999999997" type="curve" smooth="yes"/>
      <point x="249.0" y="524.4000000000001"/>
      <point x="224.6" y="547.8"/>
      <point x="209.4" y="553.2" type="curve"/>
    </contour>
  </outline>
</glyph>
<glyph name="perthousand" format="1">
  <advance width="1342.0040601630321"/>
  <unicode hex="2030"/>
  <outline>
    <contour>
      <point x="115.39999999999999" y="490.4" type="curve"/>
      <point x="115.39999999999999" y="401.20000000000005"/>
      <point x="175.8" y="344.20000000000005"/>
      <point x="258.0" y="344.20000000000005" type="curve"/>
      <point x="390.4" y="344.20000000000005"/>
      <point x="457.8" y="453.0"/>
      <point x="457.8" y="555.4" type="curve"/>
      <point x="457.8" y="644.2"/>
      <point x="397.6" y="701.2"/>
      <point x="314.2" y="701.2" type="curve"/>
      <point x="191.6" y="701.2"/>
      <point x="115.39999999999999" y="596.8"/>
    </contour>
    <contour>
      <point x="209.8" y="497.4" type="curve"/>
      <point x="209.8" y="559.6"/>
      <point x="247.0" y="615.8"/>
      <point x="305.0" y="615.8" type="curve"/>
      <point x="342.79999999999995" y="615.8"/>
      <point x="366.6" y="590.5999999999999"/>
      <point x="366.6" y="547.8" type="curve"/>
      <point x="366.6" y="484.8"/>
      <point x="329.4" y="430.20000000000005"/>
      <point x="271.4" y="430.20000000000005" type="curve"/>
      <point x="234.0" y="430.20000000000005"/>
      <point x="209.8" y="454.79999999999995"/>
    </contour>
    <contour>
      <point x="131.0" y="0.0" type="line"/>
      <point x="251.8" y="0.0" type="line"/>
      <point x="841.2" y="690.0" type="line"/>
      <point x="720.4" y="690.0" type="line"/>
    </contour>
    <contour>
      <point x="516.4" y="135.0" type="curve"/>
      <point x="516.4" y="45.8"/>
      <point x="577.2" y="-11.2"/>
      <point x="659.4" y="-11.2" type="curve"/>
      <point x="791.8" y="-11.2"/>
      <point x="858.8000000000001" y="97.6"/>
      <point x="858.8000000000001" y="200.0" type="curve"/>
      <point x="858.8000000000001" y="288.8"/>
      <point x="798.5999999999999" y="345.8"/>
      <point x="715.2" y="345.8" type="curve"/>
      <point x="592.2" y="345.8"/>
      <point x="516.4" y="241.39999999999998"/>
    </contour>
    <contour>
      <point x="610.8" y="142.0" type="curve"/>
      <point x="610.8" y="203.8"/>
      <point x="648.0" y="260.0"/>
      <point x="706.0" y="260.0" type="curve"/>
      <point x="743.4" y="260.0"/>
      <point x="767.6" y="235.20000000000002"/>
      <point x="767.6" y="192.0" type="curve"/>
      <point x="767.6" y="129.4"/>
      <point x="730.0" y="74.80000000000001"/>
      <point x="672.4" y="74.80000000000001" type="curve"/>
      <point x="635.0" y="74.80000000000001"/>
      <point x="610.8" y="99.39999999999999"/>
    </contour>
    <contour>
      <point x="911.0" y="135.0" type="curve"/>
      <point x="911.0" y="45.8"/>
      <point x="971.8" y="-11.2"/>
      <point x="1054.0" y="-11.2" type="curve"/>
      <point x="1186.4" y="-11.2"/>
      <point x="1253.4" y="97.6"/>
      <point x="1253.4" y="200.0" type="curve"/>
      <point x="1253.4" y="288.8"/>
      <point x="1193.2" y="345.8"/>
      <point x="1109.8" y="345.8" type="curve"/>
      <point x="986.8" y="345.8"/>
      <point x="911.0" y="241.39999999999998"/>
    </contour>
    <contour>
      <point x="1005.4" y="142.0" type="curve"/>
      <point x="1005.4" y="203.8"/>
      <point x="1042.6" y="260.0"/>
      <point x="1100.6" y="260.0" type="curve"/>
      <point x="1138.0" y="260.0"/>
      <point x="1162.2" y="235.20000000000002"/>
      <point x="1162.2" y="192.0" type="curve"/>
      <point x="1162.2" y="129.4"/>
      <point x="1124.6" y="74.80000000000001"/>
      <point x="1067.0" y="74.80000000000001" type="curve"/>
      <point x="1029.6" y="74.80000000000001"/>
      <point x="1005.4" y="99.39999999999999"/>
    </contour>
  </outline>
</glyph>
<glyph name="guilsinglleft" format="1">
  <advance width="302.74466052671994"/>
  <unicode hex="2039"/>
  <outline>
    <contour>
      <point x="29.6" y="244.6" type="line"/>
      <point x="112.4" y="84.6" type="line"/>
      <point x="238.20000000000002" y="84.6" type="line"/>
      <point x="132.60000000000002" y="298.0" type="line"/>
      <point x="43.6" y="304.2" type="line"/>
    </contour>
    <contour>
      <point x="29.6" y="244.6" type="line"/>
      <point x="140.8" y="258.2" type="line"/>
      <point x="316.8" y="460.6" type="line"/>
      <point x="181.0" y="460.6" type="line"/>
      <point x="44.2" y="304.8" type="line"/>
    </contour>
  </outline>
</glyph>
<glyph name="litre" format="1">
  <advance width="504.08895342806034"/>
  <unicode hex="2113"/>
  <outline>
    <contour>
      <point x="19.4" y="247.2" type="curve"/>
      <point x="35.2" y="153.2" type="line"/>
      <point x="281.8" y="185.8"/>
      <point x="524.2" y="364.6"/>
      <point x="524.2" y="574.8" type="curve" smooth="yes"/>
      <point x="524.2" y="678.2"/>
      <point x="460.2" y="731.2"/>
      <point x="369.6" y="731.2" type="curve" smooth="yes"/>
      <point x="255.8" y="731.2"/>
      <point x="191.0" y="664.2"/>
      <point x="165.4" y="544.0" type="curve" smooth="yes"/>
      <point x="86.2" y="172.0" type="line" smooth="yes"/>
      <point x="59.6" y="50.2"/>
      <point x="114.4" y="-11.2"/>
      <point x="220.39999999999998" y="-11.2" type="curve"/>
      <point x="257.6" y="-11.2"/>
      <point x="307.4" y="-1.0"/>
      <point x="341.4" y="11.4" type="curve"/>
      <point x="331.4" y="120.19999999999999" type="line"/>
      <point x="305.6" y="109.79999999999998"/>
      <point x="280.6" y="104.39999999999999"/>
      <point x="259.20000000000005" y="104.39999999999999" type="curve"/>
      <point x="223.2" y="104.39999999999999"/>
      <point x="202.0" y="121.39999999999999"/>
      <point x="215.0" y="184.6" type="curve" smooth="yes"/>
      <point x="289.2" y="533.2" type="line" smooth="yes"/>
      <point x="300.4" y="583.8"/>
      <point x="324.8" y="624.2"/>
      <point x="360.0" y="624.2" type="curve" smooth="yes"/>
      <point x="386.4" y="624.2"/>
      <point x="400.6" y="605.6"/>
      <point x="400.6" y="564.0" type="curve" smooth="yes"/>
      <point x="400.6" y="432.2"/>
      <point x="252.39999999999998" y="289.20000000000005"/>
    </contour>
  </outline>
</glyph>
<glyph name="numero" format="1">
  <advance width="1135.4929088318497"/>
  <unicode hex="2116"/>
  <outline>
    <contour>
      <point x="717.8" y="94.0" type="line"/>
      <point x="1032.6" y="94.0" type="line"/>
      <point x="1054.6" y="196.0" type="line"/>
      <point x="739.8" y="196.0" type="line"/>
    </contour>
    <contour>
      <point x="778.5999999999999" y="447.2" type="curve" smooth="yes"/>
      <point x="771.0" y="342.4"/>
      <point x="827.4" y="278.2"/>
      <point x="923.0" y="278.2" type="curve" smooth="yes"/>
      <point x="1050.0" y="278.2"/>
      <point x="1129.4" y="394.0"/>
      <point x="1137.4" y="532.2" type="curve" smooth="yes"/>
      <point x="1145.0" y="637.0"/>
      <point x="1089.2" y="701.2"/>
      <point x="1000.6" y="701.2" type="curve" smooth="yes"/>
      <point x="867.0" y="701.2"/>
      <point x="786.5999999999999" y="591.4"/>
    </contour>
    <contour>
      <point x="879.2" y="457.0" type="curve" smooth="yes"/>
      <point x="885.5999999999999" y="540.2"/>
      <point x="926.8000000000001" y="612.5999999999999"/>
      <point x="986.2" y="612.5999999999999" type="curve" smooth="yes"/>
      <point x="1023.2" y="612.5999999999999"/>
      <point x="1043.8000000000002" y="586.8"/>
      <point x="1037.4" y="521.8" type="curve" smooth="yes"/>
      <point x="1031.4" y="438.6"/>
      <point x="990.8" y="366.79999999999995"/>
      <point x="930.8" y="366.79999999999995" type="curve" smooth="yes"/>
      <point x="894.8000000000001" y="366.79999999999995"/>
      <point x="873.2" y="393.0"/>
    </contour>
    <contour>
      <point x="21.2" y="0.0" type="line"/>
      <point x="144.0" y="0.0" type="line"/>
      <point x="291.0" y="690.0" type="line"/>
      <point x="168.2" y="690.0" type="line"/>
    </contour>
    <contour>
      <point x="214.2" y="690.0" type="line"/>
      <point x="423.0" y="0.0" type="line"/>
      <point x="544.2" y="0.0" type="line"/>
      <point x="335.8" y="690.0" type="line"/>
    </contour>
    <contour>
      <point x="459.6" y="0.0" type="line"/>
      <point x="582.4" y="0.0" type="line"/>
      <point x="729.4" y="690.0" type="line"/>
      <point x="606.6" y="690.0" type="line"/>
    </contour>
  </outline>
</glyph>
<glyph name="estimated" format="1">
  <advance width="686.0228484940204"/>
  <unicode hex="212E"/>
  <outline>
    <contour>
      <point x="51.2" y="238.0" type="curve" smooth="yes"/>
      <point x="51.2" y="75.0"/>
      <point x="149.2" y="-10.0"/>
      <point x="300.2" y="-10.0" type="curve" smooth="yes"/>
      <point x="393.2" y="-10.0"/>
      <point x="476.2" y="20.0"/>
      <point x="548.2" y="64.0" type="curve"/>
      <point x="528.2" y="116.0" type="line"/>
      <point x="469.2" y="80.0"/>
      <point x="395.20000000000005" y="50.0"/>
      <point x="317.2" y="50.0" type="curve" smooth="yes"/>
      <point x="187.2" y="50.0"/>
      <point x="113.2" y="117.0"/>
      <point x="113.2" y="249.0" type="curve" smooth="yes"/>
      <point x="113.2" y="437.0"/>
      <point x="261.2" y="640.0"/>
      <point x="428.2" y="640.0" type="curve" smooth="yes"/>
      <point x="549.2" y="640.0"/>
      <point x="601.2" y="573.0"/>
      <point x="601.2" y="445.0" type="curve" smooth="yes"/>
      <point x="601.2" y="418.0"/>
      <point x="598.2" y="388.0"/>
      <point x="591.2" y="356.0" type="curve"/>
      <point x="613.2" y="390.0" type="line"/>
      <point x="103.2" y="390.0" type="line"/>
      <point x="90.2" y="330.0" type="line"/>
      <point x="644.2" y="330.0" type="line"/>
      <point x="657.2" y="372.0"/>
      <point x="664.2" y="420.0"/>
      <point x="664.2" y="458.0" type="curve" smooth="yes"/>
      <point x="664.2" y="613.0"/>
      <point x="567.2" y="700.0"/>
      <point x="441.2" y="700.0" type="curve" smooth="yes"/>
      <point x="212.2" y="700.0"/>
      <point x="51.2" y="458.0"/>
    </contour>
    <contour>
      <point x="67.19999999999999" y="220.6" type="line"/>
      <point x="151.60000000000002" y="80.6" type="line"/>
      <point x="262.6" y="600.5999999999999" type="line"/>
      <point x="122.2" y="480.59999999999997" type="line"/>
    </contour>
    <contour>
      <point x="504.79999999999995" y="350.6" type="line"/>
      <point x="619.2" y="350.6" type="line"/>
      <point x="647.2" y="480.59999999999997" type="line"/>
      <point x="561.0" y="609.8" type="line"/>
    </contour>
  </outline>
</glyph>
<glyph name="partialdiff" format="1">
  <advance width="584.4409490835565"/>
  <unicode hex="2202"/>
  <outline>
    <contour>
      <point x="21.8" y="161.0" type="curve" smooth="yes"/>
      <point x="21.8" y="50.2"/>
      <point x="94.0" y="-11.2"/>
      <point x="186.8" y="-11.2" type="curve"/>
      <point x="396.6" y="-11.2"/>
      <point x="561.0" y="211.8"/>
      <point x="561.0" y="477.8" type="curve"/>
      <point x="561.0" y="633.6"/>
      <point x="490.4" y="731.2"/>
      <point x="359.2" y="731.2" type="curve"/>
      <point x="325.2" y="731.2"/>
      <point x="287.0" y="723.4000000000001"/>
      <point x="255.0" y="712.2" type="curve"/>
      <point x="263.4" y="608.0" type="line"/>
      <point x="287.4" y="615.4"/>
      <point x="307.79999999999995" y="620.0"/>
      <point x="327.79999999999995" y="620.0" type="curve"/>
      <point x="408.4" y="620.0"/>
      <point x="448.20000000000005" y="581.2"/>
      <point x="448.20000000000005" y="463.4" type="curve" smooth="yes"/>
      <point x="448.20000000000005" y="256.4"/>
      <point x="318.6" y="93.6"/>
      <point x="213.2" y="93.6" type="curve"/>
      <point x="171.8" y="93.6"/>
      <point x="139.4" y="117.0"/>
      <point x="139.4" y="173.2" type="curve" smooth="yes"/>
      <point x="139.4" y="280.0"/>
      <point x="230.60000000000002" y="376.8"/>
      <point x="327.2" y="376.8" type="curve" smooth="yes"/>
      <point x="384.4" y="376.8"/>
      <point x="428.2" y="351.6"/>
      <point x="448.6" y="304.79999999999995" type="curve"/>
      <point x="481.0" y="383.20000000000005" type="line"/>
      <point x="457.79999999999995" y="429.0"/>
      <point x="395.6" y="478.40000000000003"/>
      <point x="317.4" y="478.40000000000003" type="curve"/>
      <point x="158.8" y="478.40000000000003"/>
      <point x="21.8" y="329.4"/>
    </contour>
  </outline>
</glyph>
<glyph name="divisionslash" format="1">
  <advance width="569.1359724476847"/>
  <unicode hex="2215"/>
  <outline>
    <contour>
      <point x="-60.0" y="0.0" type="line"/>
      <point x="88.8" y="0.0" type="line"/>
      <point x="655.8" y="690.0" type="line"/>
      <point x="507.0" y="690.0" type="line"/>
    </contour>
  </outline>
</glyph>
<glyph name="bulletoperator" format="1">
  <advance width="600.0"/>
  <unicode hex="2219"/>
  <outline>
    <contour>
      <point x="178.4" y="272.2" type="curve" smooth="yes"/>
      <point x="178.4" y="210.2"/>
      <point x="220.0" y="170.0"/>
      <point x="285.0" y="170.0" type="curve" smooth="yes"/>
      <point x="360.0" y="170.0"/>
      <point x="424.8" y="228.8"/>
      <point x="424.8" y="307.6" type="curve" smooth="yes"/>
      <point x="424.8" y="369.8"/>
      <point x="382.6" y="408.4"/>
      <point x="317.6" y="408.4" type="curve" smooth="yes"/>
      <point x="242.6" y="408.4"/>
      <point x="178.4" y="350.6"/>
    </contour>
  </outline>
</glyph>
<glyph name="notequal" format="1">
  <advance width="600.0"/>
  <unicode hex="2260"/>
  <outline>
    <contour>
      <point x="26.799999999999997" y="112.0" type="line"/>
      <point x="501.2" y="112.0" type="line"/>
      <point x="524.8" y="225.6" type="line"/>
      <point x="50.4" y="225.6" type="line"/>
    </contour>
    <contour>
      <point x="60.6" y="-30.0" type="line"/>
      <point x="187.39999999999998" y="-30.0" type="line"/>
      <point x="543.4" y="610.0" type="line"/>
      <point x="416.6" y="610.0" type="line"/>
    </contour>
    <contour>
      <point x="77.80000000000001" y="354.4" type="line"/>
      <point x="552.6" y="354.4" type="line"/>
      <point x="576.2" y="468.0" type="line"/>
      <point x="101.80000000000001" y="468.0" type="line"/>
    </contour>
  </outline>
</glyph>
<glyph name="lessequal" format="1">
  <advance width="600.0"/>
  <unicode hex="2264"/>
  <outline>
    <contour>
      <point x="26.0" y="64.0" type="line"/>
      <point x="457.6" y="64.0" type="line"/>
      <point x="479.0" y="168.6" type="line"/>
      <point x="473.6" y="177.6" type="line"/>
      <point x="50.0" y="177.6" type="line"/>
    </contour>
    <contour>
      <point x="78.4" y="313.0" type="line"/>
      <point x="480.2" y="174.6" type="line"/>
      <point x="506.8" y="290.8" type="line"/>
      <point x="186.8" y="385.2" type="line"/>
      <point x="97.6" y="401.79999999999995" type="line"/>
    </contour>
    <contour>
      <point x="85.6" y="346.6" type="line"/>
      <point x="179.6" y="350.4" type="line"/>
      <point x="538.8" y="449.8" type="line"/>
      <point x="564.8" y="570.2" type="line"/>
      <point x="103.6" y="431.79999999999995" type="line"/>
    </contour>
  </outline>
</glyph>
<glyph name="greaterequal" format="1">
  <advance width="600.0"/>
  <unicode hex="2265"/>
  <outline>
    <contour>
      <point x="49.8" y="64.0" type="line"/>
      <point x="481.0" y="64.0" type="line"/>
      <point x="505.0" y="177.6" type="line"/>
      <point x="80.4" y="177.6" type="line"/>
      <point x="72.0" y="168.6" type="line"/>
    </contour>
    <contour>
      <point x="72.80000000000001" y="174.6" type="line"/>
      <point x="533.4" y="313.0" type="line"/>
      <point x="552.6" y="401.79999999999995" type="line"/>
      <point x="459.0" y="398.4" type="line"/>
      <point x="99.4" y="293.0" type="line"/>
    </contour>
    <contour>
      <point x="131.8" y="451.8" type="line"/>
      <point x="451.4" y="364.0" type="line"/>
      <point x="540.6" y="346.6" type="line"/>
      <point x="558.6" y="431.79999999999995" type="line"/>
      <point x="157.39999999999998" y="570.2" type="line"/>
    </contour>
  </outline>
</glyph>
<glyph name="lozenge" format="1">
  <advance width="648.8151582694161"/>
  <unicode hex="25CA"/>
  <outline>
    <contour>
      <point x="42.0" y="290.0" type="line"/>
      <point x="195.0" y="-110.0" type="line"/>
      <point x="269.8" y="-110.0" type="line"/>
      <point x="285.0" y="-8.0" type="line"/>
      <point x="168.0" y="300.0" type="line"/>
    </contour>
    <contour>
      <point x="42.0" y="290.0" type="line"/>
      <point x="173.2" y="272.2" type="line"/>
      <point x="434.6" y="588.0" type="line"/>
      <point x="435.6" y="690.0" type="line"/>
      <point x="365.0" y="690.0" type="line"/>
    </contour>
    <contour>
      <point x="218.0" y="-110.0" type="line"/>
      <point x="288.6" y="-110.0" type="line"/>
      <point x="611.5999999999999" y="290.0" type="line"/>
      <point x="482.20000000000005" y="314.20000000000005" type="line"/>
      <point x="234.2" y="-8.0" type="line"/>
    </contour>
    <contour>
      <point x="368.4" y="588.0" type="line"/>
      <point x="485.59999999999997" y="280.0" type="line"/>
      <point x="611.5999999999999" y="290.0" type="line"/>
      <point x="458.6" y="690.0" type="line"/>
      <point x="383.8" y="690.0" type="line"/>
    </contour>
  </outline>
</glyph>
<glyph name="Omega" format="1">
  <advance width="711.6931185356875"/>
  <unicode hex="A7B6"/>
  <outline>
    <contour>
      <point x="8.2" y="0.0" type="line"/>
      <point x="231.2" y="0.0" type="line"/>
      <point x="260.4" y="136.8" type="line"/>
      <point x="229.4" y="175.0"/>
      <point x="205.8" y="235.4"/>
      <point x="205.8" y="306.4" type="curve"/>
      <point x="205.8" y="460.2"/>
      <point x="296.0" y="574.0"/>
      <point x="417.4" y="574.0" type="curve"/>
      <point x="494.8" y="574.0"/>
      <point x="546.8" y="522.6"/>
      <point x="546.8" y="429.0" type="curve"/>
      <point x="546.8" y="319.6"/>
      <point x="471.20000000000005" y="195.4"/>
      <point x="395.2" y="133.2" type="curve"/>
      <point x="365.6" y="0.0" type="line"/>
      <point x="589.4" y="0.0" type="line"/>
      <point x="613.0" y="110.80000000000001" type="line"/>
      <point x="435.0" y="110.80000000000001" type="line"/>
      <point x="376.2" y="46.0" type="line"/>
      <point x="538.2" y="111.39999999999999"/>
      <point x="678.5999999999999" y="272.20000000000005"/>
      <point x="678.5999999999999" y="460.79999999999995" type="curve"/>
      <point x="678.5999999999999" y="611.6"/>
      <point x="576.6" y="701.2"/>
      <point x="434.2" y="701.2" type="curve"/>
      <point x="233.79999999999998" y="701.2"/>
      <point x="83.19999999999999" y="546.4"/>
      <point x="83.19999999999999" y="336.20000000000005" type="curve"/>
      <point x="83.19999999999999" y="197.6"/>
      <point x="158.4" y="96.6"/>
      <point x="241.4" y="46.8" type="curve"/>
      <point x="209.8" y="110.80000000000001" type="line"/>
      <point x="32.6" y="110.80000000000001" type="line"/>
    </contour>
  </outline>
</glyph>
<glyph name=".notdef" format="1">
  <advance width="600.0"/>
  <outline>
    <contour>
      <point x="82.1" y="-185.0" type="line"/>
      <point x="198.89999999999998" y="-185.0" type="line"/>
      <point x="198.89999999999998" y="690.0" type="line"/>
      <point x="82.1" y="690.0" type="line"/>
    </contour>
    <contour>
      <point x="148.89999999999998" y="-185.0" type="line"/>
      <point x="439.1" y="-185.0" type="line"/>
      <point x="439.1" y="-82.6" type="line"/>
      <point x="148.89999999999998" y="-82.6" type="line"/>
    </contour>
    <contour>
      <point x="148.89999999999998" y="587.6" type="line"/>
      <point x="439.1" y="587.6" type="line"/>
      <point x="439.1" y="690.0" type="line"/>
      <point x="148.89999999999998" y="690.0" type="line"/>
    </contour>
    <contour>
      <point x="389.1" y="-185.0" type="line"/>
      <point x="505.9" y="-185.0" type="line"/>
      <point x="505.9" y="690.0" type="line"/>
      <point x="389.1" y="690.0" type="line"/>
    </contour>
  </outline>
</glyph>
<glyph name="a.alt" format="1">
  <advance width="590.8"/>
  <outline>
    <contour>
      <point x="28.8" y="184.2" type="curve" smooth="yes"/>
      <point x="28.8" y="65.2"/>
      <point x="96.4" y="-11.2"/>
      <point x="194.39999999999998" y="-11.2" type="curve" smooth="yes"/>
      <point x="264.4" y="-11.2"/>
      <point x="330.272131147541" y="26.775221238938055"/>
      <point x="371.0" y="91.6" type="curve"/>
      <point x="360.2" y="96.2" type="line"/>
      <point x="355.79999999999995" y="26.200000000000003"/>
      <point x="391.79999999999995" y="-11.2"/>
      <point x="451.79999999999995" y="-11.2" type="curve" smooth="yes"/>
      <point x="471.6" y="-11.2"/>
      <point x="489.6" y="-6.2"/>
      <point x="505.8" y="0.0" type="curve"/>
      <point x="527.4" y="101.0" type="line"/>
      <point x="521.0" y="99.0"/>
      <point x="514.6" y="97.6"/>
      <point x="507.0" y="97.6" type="curve" smooth="yes"/>
      <point x="487.4" y="97.6"/>
      <point x="480.4" y="113.2"/>
      <point x="488.6" y="152.6" type="curve" smooth="yes"/>
      <point x="566.8" y="521.0" type="line"/>
      <point x="451.8" y="521.0" type="line"/>
      <point x="429.4" y="469.6" type="line"/>
      <point x="388.6" y="278.0" type="line" smooth="yes"/>
      <point x="364.2" y="165.6"/>
      <point x="291.8" y="100.8"/>
      <point x="231.0" y="100.8" type="curve" smooth="yes"/>
      <point x="187.2" y="100.8"/>
      <point x="158.8" y="131.2"/>
      <point x="158.8" y="199.0" type="curve" smooth="yes"/>
      <point x="158.8" y="311.2"/>
      <point x="226.2" y="427.6"/>
      <point x="319.2" y="427.6" type="curve" smooth="yes"/>
      <point x="362.2" y="427.6"/>
      <point x="399.79999999999995" y="407.0"/>
      <point x="432.0" y="368.0" type="curve"/>
      <point x="450.2" y="474.2" type="line"/>
      <point x="413.0" y="511.59999999999997"/>
      <point x="361.8" y="532.2"/>
      <point x="308.4" y="532.2" type="curve" smooth="yes"/>
      <point x="161.2" y="532.2"/>
      <point x="28.8" y="370.2"/>
    </contour>
    <contour>
      <point x="354.8" y="521.0" type="move" name="top"/>
    </contour>
    <contour>
      <point x="401.4" y="0.0" type="move" name="ogonek"/>
    </contour>
    <contour>
      <point x="256.0" y="0.0" type="move" name="bottom"/>
    </contour>
  </outline>
</glyph>
<glyph name="acute.cap" format="1">
  <advance width="599.9549771688122"/>
  <outline>
    <contour>
      <point x="331.2" y="750.0" type="line"/>
      <point x="440.6" y="750.0" type="line"/>
      <point x="605.0" y="885.0" type="line"/>
      <point x="457.79999999999995" y="885.0" type="line"/>
    </contour>
    <contour>
      <point x="387.0" y="690.0" type="move" name="_top"/>
    </contour>
  </outline>
</glyph>
<glyph name="caron.alt" format="1">
  <advance width="600.0185066170216"/>
  <outline>
    <contour>
      <point x="313.4" y="531.0" type="line"/>
      <point x="415.4" y="531.0" type="line"/>
      <point x="523.4" y="731.2" type="line"/>
      <point x="395.8" y="731.2" type="line"/>
    </contour>
    <contour>
      <point x="393.0" y="720.0" type="move" name="_caron.alt"/>
    </contour>
  </outline>
</glyph>
<glyph name="caron.cap" format="1">
  <advance width="599.8330314989934"/>
  <outline>
    <contour>
      <point x="253.0" y="885.0" type="line"/>
      <point x="333.8" y="750.0" type="line"/>
      <point x="468.0" y="750.0" type="line"/>
      <point x="361.0" y="885.0" type="line"/>
    </contour>
    <contour>
      <point x="333.8" y="750.0" type="line"/>
      <point x="475.0" y="750.0" type="line"/>
      <point x="602.0" y="885.0" type="line"/>
      <point x="496.6" y="885.0" type="line"/>
    </contour>
    <contour>
      <point x="387.0" y="690.0" type="move" name="_top"/>
    </contour>
  </outline>
</glyph>
<glyph name="circumflex.cap" format="1">
  <advance width="599.8330314989934"/>
  <outline>
    <contour>
      <point x="224.39999999999998" y="750.0" type="line"/>
      <point x="329.79999999999995" y="750.0" type="line"/>
      <point x="492.59999999999997" y="885.0" type="line"/>
      <point x="351.4" y="885.0" type="line"/>
    </contour>
    <contour>
      <point x="358.4" y="885.0" type="line"/>
      <point x="465.4" y="750.0" type="line"/>
      <point x="573.4" y="750.0" type="line"/>
      <point x="492.59999999999997" y="885.0" type="line"/>
    </contour>
    <contour>
      <point x="387.0" y="690.0" type="move" name="_top"/>
    </contour>
  </outline>
</glyph>
<glyph name="commaaccent.alt" format="1">
  <advance width="600.0"/>
  <outline>
    <contour>
      <point x="470.4" y="867.0" type="line"/>
      <point x="401.4" y="867.0" type="line"/>
      <point x="347.6" y="773.8" type="line" smooth="yes"/>
      <point x="324.8" y="734.8"/>
      <point x="311.8" y="706.4"/>
      <point x="311.8" y="678.8" type="curve"/>
      <point x="311.8" y="635.0"/>
      <point x="340.6" y="611.0"/>
      <point x="378.0" y="611.0" type="curve"/>
      <point x="421.20000000000005" y="611.0"/>
      <point x="458.4" y="644.8"/>
      <point x="458.4" y="690.6" type="curve" smooth="yes"/>
      <point x="458.4" y="721.4"/>
      <point x="436.79999999999995" y="741.6"/>
      <point x="421.6" y="746.8" type="curve"/>
    </contour>
    <contour>
      <point x="350.79999999999995" y="521.0" type="move" name="_top"/>
    </contour>
  </outline>
</glyph>
<glyph name="commaaccent" format="1">
  <advance width="600.0"/>
  <outline>
    <contour>
      <point x="122.2" y="-334.0" type="line"/>
      <point x="191.2" y="-334.0" type="line"/>
      <point x="245.0" y="-240.8" type="line" smooth="yes"/>
      <point x="267.8" y="-201.8"/>
      <point x="280.8" y="-173.4"/>
      <point x="280.8" y="-145.8" type="curve"/>
      <point x="280.8" y="-102.0"/>
      <point x="252.0" y="-78.0"/>
      <point x="214.60000000000002" y="-78.0" type="curve"/>
      <point x="171.4" y="-78.0"/>
      <point x="134.2" y="-111.80000000000001"/>
      <point x="134.2" y="-157.6" type="curve" smooth="yes"/>
      <point x="134.2" y="-188.39999999999998"/>
      <point x="155.8" y="-208.6"/>
      <point x="171.0" y="-213.8" type="curve"/>
    </contour>
    <contour>
      <point x="238.79999999999998" y="-6.6" type="move" name="_bottom"/>
    </contour>
  </outline>
</glyph>
<glyph name="florin" format="1">
  <advance width="600.0"/>
  <outline>
    <contour>
      <point x="-11.799999999999999" y="-173.6" type="line"/>
      <point x="10.600000000000001" y="-183.6"/>
      <point x="46.2" y="-196.2"/>
      <point x="87.80000000000001" y="-196.2" type="curve"/>
      <point x="161.6" y="-196.2"/>
      <point x="253.2" y="-163.6"/>
      <point x="287.6" y="-0.6000000000000014" type="curve" smooth="yes"/>
      <point x="403.0" y="537.0" type="line" smooth="yes"/>
      <point x="416.20000000000005" y="597.4"/>
      <point x="445.6" y="624.2"/>
      <point x="489.8" y="624.2" type="curve"/>
      <point x="512.2" y="624.2"/>
      <point x="535.8" y="620.4"/>
      <point x="557.0" y="610.2" type="curve"/>
      <point x="596.2" y="709.0" type="line"/>
      <point x="567.6" y="721.8"/>
      <point x="528.8" y="731.2"/>
      <point x="489.20000000000005" y="731.2" type="curve"/>
      <point x="376.20000000000005" y="731.2"/>
      <point x="304.2" y="671.2"/>
      <point x="277.8" y="547.6" type="curve" smooth="yes"/>
      <point x="166.6" y="22.2" type="line" smooth="yes"/>
      <point x="147.8" y="-69.2"/>
      <point x="116.19999999999999" y="-84.4"/>
      <point x="73.19999999999999" y="-84.4" type="curve"/>
      <point x="56.400000000000006" y="-84.4"/>
      <point x="42.2" y="-81.4"/>
      <point x="23.0" y="-75.0" type="curve"/>
    </contour>
    <contour>
      <point x="160.8" y="422.8" type="line"/>
      <point x="517.2" y="422.8" type="line"/>
      <point x="538.6" y="521.0" type="line"/>
      <point x="182.2" y="521.0" type="line"/>
    </contour>
  </outline>
</glyph>
<glyph name="grave.cap" format="1">
  <advance width="599.8330314989934"/>
  <outline>
    <contour>
      <point x="254.4" y="884.4" type="line"/>
      <point x="355.79999999999995" y="750.0" type="line"/>
      <point x="459.4" y="750.0" type="line"/>
      <point x="385.8" y="884.4" type="line"/>
    </contour>
    <contour>
      <point x="386.6" y="690.0" type="move" name="_top"/>
    </contour>
  </outline>
</glyph>
<glyph name="ring_acute.cap" format="1">
  <advance width="599.810034710509"/>
  <outline>
    <component base="acute.cap" xOffset="57.0" yOffset="242.79999999999998"/>
    <component base="ring.cap"/>
    <contour>
      <point x="387.0" y="690.0" type="move" name="_top"/>
    </contour>
  </outline>
</glyph>
